%TF.GenerationSoftware,KiCad,Pcbnew,(6.0.1)*%
%TF.CreationDate,2022-08-22T15:24:11+03:00*%
%TF.ProjectId,Driver_Board,44726976-6572-45f4-926f-6172642e6b69,rev?*%
%TF.SameCoordinates,Original*%
%TF.FileFunction,Copper,L3,Inr*%
%TF.FilePolarity,Positive*%
%FSLAX46Y46*%
G04 Gerber Fmt 4.6, Leading zero omitted, Abs format (unit mm)*
G04 Created by KiCad (PCBNEW (6.0.1)) date 2022-08-22 15:24:11*
%MOMM*%
%LPD*%
G01*
G04 APERTURE LIST*
G04 Aperture macros list*
%AMRoundRect*
0 Rectangle with rounded corners*
0 $1 Rounding radius*
0 $2 $3 $4 $5 $6 $7 $8 $9 X,Y pos of 4 corners*
0 Add a 4 corners polygon primitive as box body*
4,1,4,$2,$3,$4,$5,$6,$7,$8,$9,$2,$3,0*
0 Add four circle primitives for the rounded corners*
1,1,$1+$1,$2,$3*
1,1,$1+$1,$4,$5*
1,1,$1+$1,$6,$7*
1,1,$1+$1,$8,$9*
0 Add four rect primitives between the rounded corners*
20,1,$1+$1,$2,$3,$4,$5,0*
20,1,$1+$1,$4,$5,$6,$7,0*
20,1,$1+$1,$6,$7,$8,$9,0*
20,1,$1+$1,$8,$9,$2,$3,0*%
G04 Aperture macros list end*
%TA.AperFunction,ComponentPad*%
%ADD10RoundRect,0.375000X-0.375000X-1.625000X0.375000X-1.625000X0.375000X1.625000X-0.375000X1.625000X0*%
%TD*%
%TA.AperFunction,ComponentPad*%
%ADD11RoundRect,0.250000X0.600000X0.600000X-0.600000X0.600000X-0.600000X-0.600000X0.600000X-0.600000X0*%
%TD*%
%TA.AperFunction,ComponentPad*%
%ADD12C,1.700000*%
%TD*%
%TA.AperFunction,ComponentPad*%
%ADD13C,8.000000*%
%TD*%
%TA.AperFunction,ComponentPad*%
%ADD14C,5.000000*%
%TD*%
%TA.AperFunction,ComponentPad*%
%ADD15R,1.500000X3.000000*%
%TD*%
%TA.AperFunction,ComponentPad*%
%ADD16O,1.500000X3.000000*%
%TD*%
%TA.AperFunction,ViaPad*%
%ADD17C,0.800000*%
%TD*%
G04 APERTURE END LIST*
D10*
%TO.N,E_IGBT*%
%TO.C,J3*%
X116504000Y-52070000D03*
%TO.N,G_IGBT*%
X121204000Y-52070000D03*
%TD*%
D11*
%TO.N,RDY*%
%TO.C,J1*%
X65014500Y-85598000D03*
D12*
%TO.N,GNDA*%
X62474500Y-85598000D03*
%TO.N,FLT*%
X65014500Y-83058000D03*
%TO.N,GNDA*%
X62474500Y-83058000D03*
%TO.N,RST*%
X65014500Y-80518000D03*
%TO.N,GNDA*%
X62474500Y-80518000D03*
%TO.N,IN-*%
X65014500Y-77978000D03*
%TO.N,GNDA*%
X62474500Y-77978000D03*
%TO.N,IN+*%
X65014500Y-75438000D03*
%TO.N,GNDA*%
X62474500Y-75438000D03*
%TO.N,+5VD*%
X65014500Y-72898000D03*
%TO.N,GNDA*%
X62474500Y-72898000D03*
%TO.N,VAA*%
X65014500Y-70358000D03*
%TO.N,GNDA*%
X62474500Y-70358000D03*
D13*
%TO.N,N/C*%
X63994500Y-61418000D03*
X63994500Y-94538000D03*
%TD*%
D14*
%TO.N,C_IGBT*%
%TO.C,J4*%
X118618000Y-72027000D03*
%TD*%
D15*
%TO.N,GNDA*%
%TO.C,U1*%
X81412500Y-61084000D03*
D16*
%TO.N,VAA*%
X83952500Y-61084000D03*
%TO.N,unconnected-(U1-Pad3)*%
X86492500Y-61084000D03*
%TO.N,unconnected-(U1-Pad5)*%
X91572500Y-61084000D03*
%TO.N,+15V*%
X94112500Y-61084000D03*
%TO.N,E_IGBT*%
X96652500Y-61084000D03*
%TO.N,unconnected-(U1-Pad8)*%
X99192500Y-61084000D03*
%TD*%
D17*
%TO.N,GNDA*%
X77216000Y-88392000D03*
X74206500Y-61175500D03*
X81788000Y-79777500D03*
X82423000Y-69723000D03*
X74930000Y-85344000D03*
%TO.N,RDY*%
X82423000Y-73533000D03*
X81788000Y-88376000D03*
%TO.N,FLT*%
X81788000Y-82042000D03*
X82423000Y-74803000D03*
X77209750Y-82048250D03*
%TO.N,+15V*%
X94488000Y-88646000D03*
X98044000Y-76073000D03*
X96393000Y-73533000D03*
%TO.N,VAA*%
X74168000Y-64262000D03*
%TO.N,E_IGBT*%
X96393000Y-76073000D03*
X96393000Y-69723000D03*
X97536000Y-88646000D03*
X96393000Y-78613000D03*
X98044000Y-68072000D03*
%TO.N,+5VD*%
X79502000Y-82063500D03*
X81788000Y-85344000D03*
X81788000Y-77702500D03*
%TD*%
%TA.AperFunction,Conductor*%
%TO.N,GNDA*%
G36*
X61539201Y-57424002D02*
G01*
X61585694Y-57477658D01*
X61595798Y-57547932D01*
X61566304Y-57612512D01*
X61538222Y-57636620D01*
X61418689Y-57711894D01*
X61093396Y-57960599D01*
X60791983Y-58237763D01*
X60516930Y-58541104D01*
X60515206Y-58543391D01*
X60515205Y-58543393D01*
X60432650Y-58652948D01*
X60270502Y-58868125D01*
X60054727Y-59216135D01*
X60053447Y-59218691D01*
X60053442Y-59218700D01*
X59986687Y-59352008D01*
X59871381Y-59582269D01*
X59870340Y-59584925D01*
X59870337Y-59584932D01*
X59723013Y-59960859D01*
X59721973Y-59963513D01*
X59721181Y-59966240D01*
X59721177Y-59966251D01*
X59651215Y-60207063D01*
X59607733Y-60356729D01*
X59529601Y-60758681D01*
X59488221Y-61166060D01*
X59483933Y-61575512D01*
X59484162Y-61578357D01*
X59484162Y-61578360D01*
X59511965Y-61923910D01*
X59516773Y-61983668D01*
X59586469Y-62387168D01*
X59692449Y-62782691D01*
X59833840Y-63166980D01*
X59835065Y-63169560D01*
X59835068Y-63169567D01*
X59979986Y-63474763D01*
X60009479Y-63536874D01*
X60117867Y-63720148D01*
X60215195Y-63884721D01*
X60217918Y-63889326D01*
X60457444Y-64221436D01*
X60726084Y-64530471D01*
X61021626Y-64813886D01*
X61023844Y-64815656D01*
X61023849Y-64815661D01*
X61174539Y-64935955D01*
X61341639Y-65069349D01*
X61344020Y-65070919D01*
X61633982Y-65262113D01*
X61683489Y-65294757D01*
X61686019Y-65296113D01*
X61686018Y-65296113D01*
X61992840Y-65460630D01*
X62044360Y-65488255D01*
X62421284Y-65648250D01*
X62424022Y-65649129D01*
X62808431Y-65772549D01*
X62808435Y-65772550D01*
X62811157Y-65773424D01*
X62813947Y-65774048D01*
X62813952Y-65774049D01*
X63207977Y-65862125D01*
X63207988Y-65862127D01*
X63210771Y-65862749D01*
X63616835Y-65915487D01*
X64026009Y-65931206D01*
X64028871Y-65931056D01*
X64028872Y-65931056D01*
X64432066Y-65909926D01*
X64432073Y-65909925D01*
X64434922Y-65909776D01*
X64437745Y-65909369D01*
X64437747Y-65909369D01*
X64837389Y-65851780D01*
X64837396Y-65851779D01*
X64840211Y-65851373D01*
X65238538Y-65756478D01*
X65241236Y-65755570D01*
X65241243Y-65755568D01*
X65623914Y-65626785D01*
X65623920Y-65626783D01*
X65626626Y-65625872D01*
X66001279Y-65460630D01*
X66359414Y-65262113D01*
X66494219Y-65170500D01*
X66695698Y-65033575D01*
X66695700Y-65033573D01*
X66698083Y-65031954D01*
X66981753Y-64798944D01*
X67012279Y-64773870D01*
X67012283Y-64773867D01*
X67014498Y-64772047D01*
X67016536Y-64770038D01*
X67016543Y-64770031D01*
X67261661Y-64528311D01*
X67306055Y-64484533D01*
X67339155Y-64445365D01*
X67494111Y-64262000D01*
X73254496Y-64262000D01*
X73274458Y-64451928D01*
X73333473Y-64633556D01*
X73428960Y-64798944D01*
X73556747Y-64940866D01*
X73655843Y-65012864D01*
X73679600Y-65030124D01*
X73711248Y-65053118D01*
X73717276Y-65055802D01*
X73717278Y-65055803D01*
X73879681Y-65128109D01*
X73885712Y-65130794D01*
X73979113Y-65150647D01*
X74066056Y-65169128D01*
X74066061Y-65169128D01*
X74072513Y-65170500D01*
X74263487Y-65170500D01*
X74269939Y-65169128D01*
X74269944Y-65169128D01*
X74356887Y-65150647D01*
X74450288Y-65130794D01*
X74456319Y-65128109D01*
X74618722Y-65055803D01*
X74618724Y-65055802D01*
X74624752Y-65053118D01*
X74656401Y-65030124D01*
X74680157Y-65012864D01*
X74779253Y-64940866D01*
X74907040Y-64798944D01*
X75002527Y-64633556D01*
X75061542Y-64451928D01*
X75081504Y-64262000D01*
X75061542Y-64072072D01*
X75002527Y-63890444D01*
X74907040Y-63725056D01*
X74779253Y-63583134D01*
X74642111Y-63483494D01*
X74630094Y-63474763D01*
X74630093Y-63474762D01*
X74624752Y-63470882D01*
X74618724Y-63468198D01*
X74618722Y-63468197D01*
X74456319Y-63395891D01*
X74456318Y-63395891D01*
X74450288Y-63393206D01*
X74356888Y-63373353D01*
X74269944Y-63354872D01*
X74269939Y-63354872D01*
X74263487Y-63353500D01*
X74072513Y-63353500D01*
X74066061Y-63354872D01*
X74066056Y-63354872D01*
X73979112Y-63373353D01*
X73885712Y-63393206D01*
X73879682Y-63395891D01*
X73879681Y-63395891D01*
X73717278Y-63468197D01*
X73717276Y-63468198D01*
X73711248Y-63470882D01*
X73705907Y-63474762D01*
X73705906Y-63474763D01*
X73693889Y-63483494D01*
X73556747Y-63583134D01*
X73428960Y-63725056D01*
X73333473Y-63890444D01*
X73274458Y-64072072D01*
X73254496Y-64262000D01*
X67494111Y-64262000D01*
X67568508Y-64173963D01*
X67568513Y-64173957D01*
X67570354Y-64171778D01*
X67635574Y-64078635D01*
X67803584Y-63838691D01*
X67805219Y-63836356D01*
X68008717Y-63481027D01*
X68014591Y-63468197D01*
X68177985Y-63111316D01*
X68177988Y-63111307D01*
X68179174Y-63108718D01*
X68315185Y-62722492D01*
X68415633Y-62325528D01*
X68479689Y-61921095D01*
X68506826Y-61512520D01*
X68507816Y-61418000D01*
X68489241Y-61008947D01*
X68433669Y-60603260D01*
X68341557Y-60204280D01*
X68264130Y-59968783D01*
X68214557Y-59818005D01*
X68214554Y-59817998D01*
X68213664Y-59815290D01*
X68051042Y-59439492D01*
X67885797Y-59136412D01*
X67856399Y-59082492D01*
X67856395Y-59082485D01*
X67855029Y-59079980D01*
X67768356Y-58950510D01*
X67628832Y-58742090D01*
X67628824Y-58742079D01*
X67627240Y-58739713D01*
X67369549Y-58421491D01*
X67227249Y-58275160D01*
X67086067Y-58129980D01*
X67086063Y-58129976D01*
X67084077Y-58127934D01*
X67081919Y-58126084D01*
X67081909Y-58126075D01*
X66775349Y-57863321D01*
X66775344Y-57863317D01*
X66773175Y-57861458D01*
X66770844Y-57859801D01*
X66770837Y-57859796D01*
X66451289Y-57632706D01*
X66407348Y-57576941D01*
X66400532Y-57506272D01*
X66433005Y-57443137D01*
X66494456Y-57407580D01*
X66524278Y-57404000D01*
X79376000Y-57404000D01*
X79444121Y-57424002D01*
X79490614Y-57477658D01*
X79502000Y-57530000D01*
X79502000Y-68834000D01*
X85218000Y-68834000D01*
X85286121Y-68854002D01*
X85332614Y-68907658D01*
X85344000Y-68960000D01*
X85344000Y-97156000D01*
X85323998Y-97224121D01*
X85270342Y-97270614D01*
X85218000Y-97282000D01*
X77384905Y-97282000D01*
X77316784Y-97261998D01*
X77270291Y-97208342D01*
X77259078Y-97149405D01*
X77259087Y-97149246D01*
X77265441Y-97028000D01*
X77245690Y-96651129D01*
X77238146Y-96603494D01*
X77218008Y-96476353D01*
X77186653Y-96278387D01*
X77088978Y-95913857D01*
X77085720Y-95905368D01*
X76954918Y-95564620D01*
X76953734Y-95561535D01*
X76782403Y-95225280D01*
X76705262Y-95106492D01*
X76578665Y-94911550D01*
X76576863Y-94908775D01*
X76339365Y-94615489D01*
X76072511Y-94348635D01*
X75779225Y-94111137D01*
X75462720Y-93905597D01*
X75459786Y-93904102D01*
X75459779Y-93904098D01*
X75129405Y-93735764D01*
X75126465Y-93734266D01*
X74774143Y-93599022D01*
X74409613Y-93501347D01*
X74211647Y-93469992D01*
X74040119Y-93442824D01*
X74040111Y-93442823D01*
X74036871Y-93442310D01*
X73754280Y-93427500D01*
X73565720Y-93427500D01*
X73283129Y-93442310D01*
X73279889Y-93442823D01*
X73279881Y-93442824D01*
X73108353Y-93469992D01*
X72910387Y-93501347D01*
X72545857Y-93599022D01*
X72193535Y-93734266D01*
X72190595Y-93735764D01*
X71860221Y-93904098D01*
X71860214Y-93904102D01*
X71857280Y-93905597D01*
X71540775Y-94111137D01*
X71247489Y-94348635D01*
X70980635Y-94615489D01*
X70743137Y-94908775D01*
X70741335Y-94911550D01*
X70539395Y-95222510D01*
X70539393Y-95222513D01*
X70537597Y-95225279D01*
X70536102Y-95228213D01*
X70536098Y-95228220D01*
X70395412Y-95504332D01*
X70366266Y-95561535D01*
X70365082Y-95564620D01*
X70234281Y-95905368D01*
X70231022Y-95913857D01*
X70133347Y-96278387D01*
X70101992Y-96476353D01*
X70081855Y-96603494D01*
X70074310Y-96651129D01*
X70054559Y-97028000D01*
X70060914Y-97149246D01*
X70060922Y-97149405D01*
X70044513Y-97218479D01*
X69993364Y-97267717D01*
X69935095Y-97282000D01*
X67819245Y-97282000D01*
X67751124Y-97261998D01*
X67704631Y-97208342D01*
X67694527Y-97138068D01*
X67716032Y-97083730D01*
X67803577Y-96958701D01*
X67805219Y-96956356D01*
X68008717Y-96601027D01*
X68151315Y-96289567D01*
X68177985Y-96231316D01*
X68177988Y-96231307D01*
X68179174Y-96228718D01*
X68315185Y-95842492D01*
X68386279Y-95561535D01*
X68414930Y-95448307D01*
X68414931Y-95448303D01*
X68415633Y-95445528D01*
X68450956Y-95222511D01*
X68479243Y-95043910D01*
X68479689Y-95041095D01*
X68506826Y-94632520D01*
X68507816Y-94538000D01*
X68489241Y-94128947D01*
X68486802Y-94111137D01*
X68435382Y-93735764D01*
X68433669Y-93723260D01*
X68341557Y-93324280D01*
X68335960Y-93307255D01*
X68214557Y-92938005D01*
X68214554Y-92937998D01*
X68213664Y-92935290D01*
X68051042Y-92559492D01*
X67855029Y-92199980D01*
X67774690Y-92079971D01*
X67628832Y-91862090D01*
X67628824Y-91862079D01*
X67627240Y-91859713D01*
X67369549Y-91541491D01*
X67190882Y-91357763D01*
X67086067Y-91249980D01*
X67086063Y-91249976D01*
X67084077Y-91247934D01*
X67081919Y-91246084D01*
X67081909Y-91246075D01*
X66775349Y-90983321D01*
X66775344Y-90983317D01*
X66773175Y-90981458D01*
X66770844Y-90979801D01*
X66770837Y-90979796D01*
X66565163Y-90833632D01*
X66439400Y-90744257D01*
X66212845Y-90612399D01*
X66087974Y-90539722D01*
X66087969Y-90539719D01*
X66085501Y-90538283D01*
X65851346Y-90429095D01*
X65716987Y-90366442D01*
X65716977Y-90366438D01*
X65714391Y-90365232D01*
X65711694Y-90364261D01*
X65331814Y-90227495D01*
X65331805Y-90227492D01*
X65329124Y-90226527D01*
X65066747Y-90158183D01*
X64935640Y-90124032D01*
X64935634Y-90124031D01*
X64932871Y-90123311D01*
X64528895Y-90056433D01*
X64526052Y-90056224D01*
X64526050Y-90056224D01*
X64123365Y-90026653D01*
X64120519Y-90026444D01*
X63950543Y-90029411D01*
X63713958Y-90033540D01*
X63713953Y-90033540D01*
X63711107Y-90033590D01*
X63708274Y-90033898D01*
X63708270Y-90033898D01*
X63379396Y-90069625D01*
X63304027Y-90077813D01*
X62902630Y-90158749D01*
X62899902Y-90159562D01*
X62899891Y-90159565D01*
X62587367Y-90252733D01*
X62510221Y-90275731D01*
X62507560Y-90276795D01*
X62507558Y-90276796D01*
X62283427Y-90366442D01*
X62130029Y-90427797D01*
X62127482Y-90429095D01*
X61767727Y-90612399D01*
X61767722Y-90612402D01*
X61765184Y-90613695D01*
X61418689Y-90831894D01*
X61093396Y-91080599D01*
X60791983Y-91357763D01*
X60516930Y-91661104D01*
X60270502Y-91988125D01*
X60054727Y-92336135D01*
X60053447Y-92338691D01*
X60053442Y-92338700D01*
X59944135Y-92556982D01*
X59871381Y-92702269D01*
X59870340Y-92704925D01*
X59870337Y-92704932D01*
X59780061Y-92935290D01*
X59721973Y-93083513D01*
X59721181Y-93086240D01*
X59721177Y-93086251D01*
X59617583Y-93442824D01*
X59607733Y-93476729D01*
X59529601Y-93878681D01*
X59488221Y-94286060D01*
X59483933Y-94695512D01*
X59484162Y-94698357D01*
X59484162Y-94698360D01*
X59511965Y-95043910D01*
X59516773Y-95103668D01*
X59586469Y-95507168D01*
X59692449Y-95902691D01*
X59833840Y-96286980D01*
X60009479Y-96656874D01*
X60077985Y-96772711D01*
X60187979Y-96958701D01*
X60217918Y-97009326D01*
X60219580Y-97011630D01*
X60219581Y-97011632D01*
X60270545Y-97082295D01*
X60294170Y-97149246D01*
X60277848Y-97218341D01*
X60226762Y-97267643D01*
X60168351Y-97282000D01*
X59308000Y-97282000D01*
X59239879Y-97261998D01*
X59193386Y-97208342D01*
X59182000Y-97156000D01*
X59182000Y-88376000D01*
X80874496Y-88376000D01*
X80894458Y-88565928D01*
X80953473Y-88747556D01*
X81048960Y-88912944D01*
X81176747Y-89054866D01*
X81331248Y-89167118D01*
X81337276Y-89169802D01*
X81337278Y-89169803D01*
X81499681Y-89242109D01*
X81505712Y-89244794D01*
X81599112Y-89264647D01*
X81686056Y-89283128D01*
X81686061Y-89283128D01*
X81692513Y-89284500D01*
X81883487Y-89284500D01*
X81889939Y-89283128D01*
X81889944Y-89283128D01*
X81976888Y-89264647D01*
X82070288Y-89244794D01*
X82076319Y-89242109D01*
X82238722Y-89169803D01*
X82238724Y-89169802D01*
X82244752Y-89167118D01*
X82399253Y-89054866D01*
X82527040Y-88912944D01*
X82622527Y-88747556D01*
X82681542Y-88565928D01*
X82701504Y-88376000D01*
X82681542Y-88186072D01*
X82622527Y-88004444D01*
X82527040Y-87839056D01*
X82399253Y-87697134D01*
X82244752Y-87584882D01*
X82238724Y-87582198D01*
X82238722Y-87582197D01*
X82076319Y-87509891D01*
X82076318Y-87509891D01*
X82070288Y-87507206D01*
X81976888Y-87487353D01*
X81889944Y-87468872D01*
X81889939Y-87468872D01*
X81883487Y-87467500D01*
X81692513Y-87467500D01*
X81686061Y-87468872D01*
X81686056Y-87468872D01*
X81599112Y-87487353D01*
X81505712Y-87507206D01*
X81499682Y-87509891D01*
X81499681Y-87509891D01*
X81337278Y-87582197D01*
X81337276Y-87582198D01*
X81331248Y-87584882D01*
X81176747Y-87697134D01*
X81048960Y-87839056D01*
X80953473Y-88004444D01*
X80894458Y-88186072D01*
X80874496Y-88376000D01*
X59182000Y-88376000D01*
X59182000Y-83024695D01*
X63651751Y-83024695D01*
X63652048Y-83029848D01*
X63652048Y-83029851D01*
X63657511Y-83124590D01*
X63664610Y-83247715D01*
X63665747Y-83252761D01*
X63665748Y-83252767D01*
X63685619Y-83340939D01*
X63713722Y-83465639D01*
X63797766Y-83672616D01*
X63914487Y-83863088D01*
X64060750Y-84031938D01*
X64130844Y-84090131D01*
X64170479Y-84149033D01*
X64171977Y-84220014D01*
X64134863Y-84280537D01*
X64103812Y-84301175D01*
X64097496Y-84304134D01*
X64090554Y-84306450D01*
X63940152Y-84399522D01*
X63815195Y-84524697D01*
X63811355Y-84530927D01*
X63811354Y-84530928D01*
X63731022Y-84661251D01*
X63722385Y-84675262D01*
X63720081Y-84682209D01*
X63676775Y-84812774D01*
X63666703Y-84843139D01*
X63656000Y-84947600D01*
X63656000Y-86248400D01*
X63666974Y-86354166D01*
X63722950Y-86521946D01*
X63816022Y-86672348D01*
X63941197Y-86797305D01*
X63947427Y-86801145D01*
X63947428Y-86801146D01*
X64084590Y-86885694D01*
X64091762Y-86890115D01*
X64171505Y-86916564D01*
X64253111Y-86943632D01*
X64253113Y-86943632D01*
X64259639Y-86945797D01*
X64266475Y-86946497D01*
X64266478Y-86946498D01*
X64309531Y-86950909D01*
X64364100Y-86956500D01*
X65664900Y-86956500D01*
X65668146Y-86956163D01*
X65668150Y-86956163D01*
X65763808Y-86946238D01*
X65763812Y-86946237D01*
X65770666Y-86945526D01*
X65777202Y-86943345D01*
X65777204Y-86943345D01*
X65909306Y-86899272D01*
X65938446Y-86889550D01*
X66088848Y-86796478D01*
X66213805Y-86671303D01*
X66306615Y-86520738D01*
X66362297Y-86352861D01*
X66373000Y-86248400D01*
X66373000Y-85344000D01*
X80874496Y-85344000D01*
X80894458Y-85533928D01*
X80953473Y-85715556D01*
X81048960Y-85880944D01*
X81176747Y-86022866D01*
X81331248Y-86135118D01*
X81337276Y-86137802D01*
X81337278Y-86137803D01*
X81499681Y-86210109D01*
X81505712Y-86212794D01*
X81599113Y-86232647D01*
X81686056Y-86251128D01*
X81686061Y-86251128D01*
X81692513Y-86252500D01*
X81883487Y-86252500D01*
X81889939Y-86251128D01*
X81889944Y-86251128D01*
X81976887Y-86232647D01*
X82070288Y-86212794D01*
X82076319Y-86210109D01*
X82238722Y-86137803D01*
X82238724Y-86137802D01*
X82244752Y-86135118D01*
X82399253Y-86022866D01*
X82527040Y-85880944D01*
X82622527Y-85715556D01*
X82681542Y-85533928D01*
X82701504Y-85344000D01*
X82681542Y-85154072D01*
X82622527Y-84972444D01*
X82527040Y-84807056D01*
X82414628Y-84682209D01*
X82403675Y-84670045D01*
X82403674Y-84670044D01*
X82399253Y-84665134D01*
X82244752Y-84552882D01*
X82238724Y-84550198D01*
X82238722Y-84550197D01*
X82076319Y-84477891D01*
X82076318Y-84477891D01*
X82070288Y-84475206D01*
X81976888Y-84455353D01*
X81889944Y-84436872D01*
X81889939Y-84436872D01*
X81883487Y-84435500D01*
X81692513Y-84435500D01*
X81686061Y-84436872D01*
X81686056Y-84436872D01*
X81599112Y-84455353D01*
X81505712Y-84475206D01*
X81499682Y-84477891D01*
X81499681Y-84477891D01*
X81337278Y-84550197D01*
X81337276Y-84550198D01*
X81331248Y-84552882D01*
X81176747Y-84665134D01*
X81172326Y-84670044D01*
X81172325Y-84670045D01*
X81161373Y-84682209D01*
X81048960Y-84807056D01*
X80953473Y-84972444D01*
X80894458Y-85154072D01*
X80874496Y-85344000D01*
X66373000Y-85344000D01*
X66373000Y-84947600D01*
X66362026Y-84841834D01*
X66306050Y-84674054D01*
X66212978Y-84523652D01*
X66087803Y-84398695D01*
X65937238Y-84305885D01*
X65930285Y-84303579D01*
X65929404Y-84303168D01*
X65876118Y-84256252D01*
X65856656Y-84187975D01*
X65877196Y-84120015D01*
X65895029Y-84099844D01*
X65894360Y-84099173D01*
X66048935Y-83945137D01*
X66052596Y-83941489D01*
X66112094Y-83858689D01*
X66179935Y-83764277D01*
X66182953Y-83760077D01*
X66281930Y-83559811D01*
X66346870Y-83346069D01*
X66376029Y-83124590D01*
X66377656Y-83058000D01*
X66359352Y-82835361D01*
X66304931Y-82618702D01*
X66215854Y-82413840D01*
X66106275Y-82244456D01*
X66097322Y-82230617D01*
X66097320Y-82230614D01*
X66094514Y-82226277D01*
X65944170Y-82061051D01*
X65940119Y-82057852D01*
X65940115Y-82057848D01*
X65927962Y-82048250D01*
X76296246Y-82048250D01*
X76296936Y-82054815D01*
X76314556Y-82222457D01*
X76316208Y-82238178D01*
X76375223Y-82419806D01*
X76378526Y-82425528D01*
X76378527Y-82425529D01*
X76387332Y-82440779D01*
X76470710Y-82585194D01*
X76475128Y-82590101D01*
X76475129Y-82590102D01*
X76592869Y-82720866D01*
X76598497Y-82727116D01*
X76695493Y-82797588D01*
X76744396Y-82833118D01*
X76752998Y-82839368D01*
X76759026Y-82842052D01*
X76759028Y-82842053D01*
X76921431Y-82914359D01*
X76927462Y-82917044D01*
X77005662Y-82933666D01*
X77107806Y-82955378D01*
X77107811Y-82955378D01*
X77114263Y-82956750D01*
X77305237Y-82956750D01*
X77311689Y-82955378D01*
X77311694Y-82955378D01*
X77413838Y-82933666D01*
X77492038Y-82917044D01*
X77498069Y-82914359D01*
X77660472Y-82842053D01*
X77660474Y-82842052D01*
X77666502Y-82839368D01*
X77675105Y-82833118D01*
X77724007Y-82797588D01*
X77821003Y-82727116D01*
X77826631Y-82720866D01*
X77944371Y-82590102D01*
X77944372Y-82590101D01*
X77948790Y-82585194D01*
X78032168Y-82440779D01*
X78040973Y-82425529D01*
X78040974Y-82425528D01*
X78044277Y-82419806D01*
X78103292Y-82238178D01*
X78104945Y-82222457D01*
X78121651Y-82063500D01*
X78588496Y-82063500D01*
X78608458Y-82253428D01*
X78667473Y-82435056D01*
X78762960Y-82600444D01*
X78767378Y-82605351D01*
X78767379Y-82605352D01*
X78877016Y-82727116D01*
X78890747Y-82742366D01*
X78966753Y-82797588D01*
X79025847Y-82840522D01*
X79045248Y-82854618D01*
X79051276Y-82857302D01*
X79051278Y-82857303D01*
X79188541Y-82918416D01*
X79219712Y-82932294D01*
X79305364Y-82950500D01*
X79400056Y-82970628D01*
X79400061Y-82970628D01*
X79406513Y-82972000D01*
X79597487Y-82972000D01*
X79603939Y-82970628D01*
X79603944Y-82970628D01*
X79698636Y-82950500D01*
X79784288Y-82932294D01*
X79815459Y-82918416D01*
X79952722Y-82857303D01*
X79952724Y-82857302D01*
X79958752Y-82854618D01*
X79978154Y-82840522D01*
X80037247Y-82797588D01*
X80113253Y-82742366D01*
X80126984Y-82727116D01*
X80236621Y-82605352D01*
X80236622Y-82605351D01*
X80241040Y-82600444D01*
X80336527Y-82435056D01*
X80395542Y-82253428D01*
X80415504Y-82063500D01*
X80413901Y-82048250D01*
X80413244Y-82042000D01*
X80874496Y-82042000D01*
X80875186Y-82048565D01*
X80893463Y-82222457D01*
X80894458Y-82231928D01*
X80953473Y-82413556D01*
X80956776Y-82419278D01*
X80956777Y-82419279D01*
X80962257Y-82428771D01*
X81048960Y-82578944D01*
X81053378Y-82583851D01*
X81053379Y-82583852D01*
X81072738Y-82605352D01*
X81176747Y-82720866D01*
X81331248Y-82833118D01*
X81337276Y-82835802D01*
X81337278Y-82835803D01*
X81499681Y-82908109D01*
X81505712Y-82910794D01*
X81594229Y-82929609D01*
X81686056Y-82949128D01*
X81686061Y-82949128D01*
X81692513Y-82950500D01*
X81883487Y-82950500D01*
X81889939Y-82949128D01*
X81889944Y-82949128D01*
X81981771Y-82929609D01*
X82070288Y-82910794D01*
X82076319Y-82908109D01*
X82238722Y-82835803D01*
X82238724Y-82835802D01*
X82244752Y-82833118D01*
X82399253Y-82720866D01*
X82503262Y-82605352D01*
X82522621Y-82583852D01*
X82522622Y-82583851D01*
X82527040Y-82578944D01*
X82613743Y-82428771D01*
X82619223Y-82419279D01*
X82619224Y-82419278D01*
X82622527Y-82413556D01*
X82681542Y-82231928D01*
X82682538Y-82222457D01*
X82700814Y-82048565D01*
X82701504Y-82042000D01*
X82689291Y-81925800D01*
X82682232Y-81858635D01*
X82682232Y-81858633D01*
X82681542Y-81852072D01*
X82622527Y-81670444D01*
X82527040Y-81505056D01*
X82415116Y-81380751D01*
X82403675Y-81368045D01*
X82403674Y-81368044D01*
X82399253Y-81363134D01*
X82258696Y-81261013D01*
X82250094Y-81254763D01*
X82250093Y-81254762D01*
X82244752Y-81250882D01*
X82238724Y-81248198D01*
X82238722Y-81248197D01*
X82076319Y-81175891D01*
X82076318Y-81175891D01*
X82070288Y-81173206D01*
X81976888Y-81153353D01*
X81889944Y-81134872D01*
X81889939Y-81134872D01*
X81883487Y-81133500D01*
X81692513Y-81133500D01*
X81686061Y-81134872D01*
X81686056Y-81134872D01*
X81599112Y-81153353D01*
X81505712Y-81173206D01*
X81499682Y-81175891D01*
X81499681Y-81175891D01*
X81337278Y-81248197D01*
X81337276Y-81248198D01*
X81331248Y-81250882D01*
X81325907Y-81254762D01*
X81325906Y-81254763D01*
X81317304Y-81261013D01*
X81176747Y-81363134D01*
X81172326Y-81368044D01*
X81172325Y-81368045D01*
X81160885Y-81380751D01*
X81048960Y-81505056D01*
X80953473Y-81670444D01*
X80894458Y-81852072D01*
X80893768Y-81858633D01*
X80893768Y-81858635D01*
X80886709Y-81925800D01*
X80874496Y-82042000D01*
X80413244Y-82042000D01*
X80396232Y-81880135D01*
X80396232Y-81880133D01*
X80395542Y-81873572D01*
X80336527Y-81691944D01*
X80327723Y-81676694D01*
X80259871Y-81559173D01*
X80241040Y-81526556D01*
X80232458Y-81517024D01*
X80117675Y-81389545D01*
X80117674Y-81389544D01*
X80113253Y-81384634D01*
X79958752Y-81272382D01*
X79952724Y-81269698D01*
X79952722Y-81269697D01*
X79790319Y-81197391D01*
X79790318Y-81197391D01*
X79784288Y-81194706D01*
X79683139Y-81173206D01*
X79603944Y-81156372D01*
X79603939Y-81156372D01*
X79597487Y-81155000D01*
X79406513Y-81155000D01*
X79400061Y-81156372D01*
X79400056Y-81156372D01*
X79320861Y-81173206D01*
X79219712Y-81194706D01*
X79213682Y-81197391D01*
X79213681Y-81197391D01*
X79051278Y-81269697D01*
X79051276Y-81269698D01*
X79045248Y-81272382D01*
X78890747Y-81384634D01*
X78886326Y-81389544D01*
X78886325Y-81389545D01*
X78771543Y-81517024D01*
X78762960Y-81526556D01*
X78744129Y-81559173D01*
X78676278Y-81676694D01*
X78667473Y-81691944D01*
X78608458Y-81873572D01*
X78607768Y-81880133D01*
X78607768Y-81880135D01*
X78590099Y-82048250D01*
X78588496Y-82063500D01*
X78121651Y-82063500D01*
X78122564Y-82054815D01*
X78123254Y-82048250D01*
X78110048Y-81922598D01*
X78103982Y-81864885D01*
X78103982Y-81864883D01*
X78103292Y-81858322D01*
X78044277Y-81676694D01*
X78037365Y-81664721D01*
X77960896Y-81532274D01*
X77948790Y-81511306D01*
X77943163Y-81505056D01*
X77825425Y-81374295D01*
X77825424Y-81374294D01*
X77821003Y-81369384D01*
X77721907Y-81297386D01*
X77671844Y-81261013D01*
X77671843Y-81261012D01*
X77666502Y-81257132D01*
X77660474Y-81254448D01*
X77660472Y-81254447D01*
X77498069Y-81182141D01*
X77498068Y-81182141D01*
X77492038Y-81179456D01*
X77383437Y-81156372D01*
X77311694Y-81141122D01*
X77311689Y-81141122D01*
X77305237Y-81139750D01*
X77114263Y-81139750D01*
X77107811Y-81141122D01*
X77107806Y-81141122D01*
X77036063Y-81156372D01*
X76927462Y-81179456D01*
X76921432Y-81182141D01*
X76921431Y-81182141D01*
X76759028Y-81254447D01*
X76759026Y-81254448D01*
X76752998Y-81257132D01*
X76747657Y-81261012D01*
X76747656Y-81261013D01*
X76697593Y-81297386D01*
X76598497Y-81369384D01*
X76594076Y-81374294D01*
X76594075Y-81374295D01*
X76476338Y-81505056D01*
X76470710Y-81511306D01*
X76458604Y-81532274D01*
X76382136Y-81664721D01*
X76375223Y-81676694D01*
X76316208Y-81858322D01*
X76315518Y-81864883D01*
X76315518Y-81864885D01*
X76309452Y-81922598D01*
X76296246Y-82048250D01*
X65927962Y-82048250D01*
X65772914Y-81925800D01*
X65772910Y-81925798D01*
X65768859Y-81922598D01*
X65727553Y-81899796D01*
X65677584Y-81849364D01*
X65662812Y-81779921D01*
X65687928Y-81713516D01*
X65715280Y-81686909D01*
X65759103Y-81655650D01*
X65894360Y-81559173D01*
X65942929Y-81510774D01*
X66048935Y-81405137D01*
X66052596Y-81401489D01*
X66064708Y-81384634D01*
X66179935Y-81224277D01*
X66182953Y-81220077D01*
X66281930Y-81019811D01*
X66346870Y-80806069D01*
X66376029Y-80584590D01*
X66377656Y-80518000D01*
X66359352Y-80295361D01*
X66304931Y-80078702D01*
X66215854Y-79873840D01*
X66094514Y-79686277D01*
X65944170Y-79521051D01*
X65940119Y-79517852D01*
X65940115Y-79517848D01*
X65772914Y-79385800D01*
X65772910Y-79385798D01*
X65768859Y-79382598D01*
X65727553Y-79359796D01*
X65677584Y-79309364D01*
X65662812Y-79239921D01*
X65687928Y-79173516D01*
X65715280Y-79146909D01*
X65759103Y-79115650D01*
X65894360Y-79019173D01*
X66052596Y-78861489D01*
X66112094Y-78778689D01*
X66179935Y-78684277D01*
X66182953Y-78680077D01*
X66236039Y-78572666D01*
X66279636Y-78484453D01*
X66279637Y-78484451D01*
X66281930Y-78479811D01*
X66346870Y-78266069D01*
X66376029Y-78044590D01*
X66377656Y-77978000D01*
X66359352Y-77755361D01*
X66346074Y-77702500D01*
X80874496Y-77702500D01*
X80894458Y-77892428D01*
X80953473Y-78074056D01*
X81048960Y-78239444D01*
X81176747Y-78381366D01*
X81189216Y-78390425D01*
X81318634Y-78484453D01*
X81331248Y-78493618D01*
X81337276Y-78496302D01*
X81337278Y-78496303D01*
X81499681Y-78568609D01*
X81505712Y-78571294D01*
X81583503Y-78587829D01*
X81686056Y-78609628D01*
X81686061Y-78609628D01*
X81692513Y-78611000D01*
X81883487Y-78611000D01*
X81889939Y-78609628D01*
X81889944Y-78609628D01*
X81992497Y-78587829D01*
X82070288Y-78571294D01*
X82076319Y-78568609D01*
X82238722Y-78496303D01*
X82238724Y-78496302D01*
X82244752Y-78493618D01*
X82257367Y-78484453D01*
X82386784Y-78390425D01*
X82399253Y-78381366D01*
X82527040Y-78239444D01*
X82622527Y-78074056D01*
X82681542Y-77892428D01*
X82701504Y-77702500D01*
X82684816Y-77543720D01*
X82682232Y-77519135D01*
X82682232Y-77519133D01*
X82681542Y-77512572D01*
X82622527Y-77330944D01*
X82607364Y-77304680D01*
X82530341Y-77171274D01*
X82527040Y-77165556D01*
X82486146Y-77120138D01*
X82403675Y-77028545D01*
X82403674Y-77028544D01*
X82399253Y-77023634D01*
X82244752Y-76911382D01*
X82238724Y-76908698D01*
X82238722Y-76908697D01*
X82076319Y-76836391D01*
X82076318Y-76836391D01*
X82070288Y-76833706D01*
X81976888Y-76813853D01*
X81889944Y-76795372D01*
X81889939Y-76795372D01*
X81883487Y-76794000D01*
X81692513Y-76794000D01*
X81686061Y-76795372D01*
X81686056Y-76795372D01*
X81599112Y-76813853D01*
X81505712Y-76833706D01*
X81499682Y-76836391D01*
X81499681Y-76836391D01*
X81337278Y-76908697D01*
X81337276Y-76908698D01*
X81331248Y-76911382D01*
X81176747Y-77023634D01*
X81172326Y-77028544D01*
X81172325Y-77028545D01*
X81089855Y-77120138D01*
X81048960Y-77165556D01*
X81045659Y-77171274D01*
X80968637Y-77304680D01*
X80953473Y-77330944D01*
X80894458Y-77512572D01*
X80893768Y-77519133D01*
X80893768Y-77519135D01*
X80891184Y-77543720D01*
X80874496Y-77702500D01*
X66346074Y-77702500D01*
X66304931Y-77538702D01*
X66215854Y-77333840D01*
X66176406Y-77272862D01*
X66097322Y-77150617D01*
X66097320Y-77150614D01*
X66094514Y-77146277D01*
X65944170Y-76981051D01*
X65940119Y-76977852D01*
X65940115Y-76977848D01*
X65772914Y-76845800D01*
X65772910Y-76845798D01*
X65768859Y-76842598D01*
X65727553Y-76819796D01*
X65677584Y-76769364D01*
X65662812Y-76699921D01*
X65687928Y-76633516D01*
X65715280Y-76606909D01*
X65759103Y-76575650D01*
X65894360Y-76479173D01*
X66052596Y-76321489D01*
X66112094Y-76238689D01*
X66179935Y-76144277D01*
X66182953Y-76140077D01*
X66281930Y-75939811D01*
X66346870Y-75726069D01*
X66376029Y-75504590D01*
X66376111Y-75501240D01*
X66377574Y-75441365D01*
X66377574Y-75441361D01*
X66377656Y-75438000D01*
X66359352Y-75215361D01*
X66304931Y-74998702D01*
X66219837Y-74803000D01*
X81509496Y-74803000D01*
X81510186Y-74809565D01*
X81527290Y-74972297D01*
X81529458Y-74992928D01*
X81588473Y-75174556D01*
X81591776Y-75180278D01*
X81591777Y-75180279D01*
X81625686Y-75239010D01*
X81683960Y-75339944D01*
X81811747Y-75481866D01*
X81966248Y-75594118D01*
X81972276Y-75596802D01*
X81972278Y-75596803D01*
X82041708Y-75627715D01*
X82140712Y-75671794D01*
X82234113Y-75691647D01*
X82321056Y-75710128D01*
X82321061Y-75710128D01*
X82327513Y-75711500D01*
X82518487Y-75711500D01*
X82524939Y-75710128D01*
X82524944Y-75710128D01*
X82611887Y-75691647D01*
X82705288Y-75671794D01*
X82804292Y-75627715D01*
X82873722Y-75596803D01*
X82873724Y-75596802D01*
X82879752Y-75594118D01*
X83034253Y-75481866D01*
X83162040Y-75339944D01*
X83220314Y-75239010D01*
X83254223Y-75180279D01*
X83254224Y-75180278D01*
X83257527Y-75174556D01*
X83316542Y-74992928D01*
X83318711Y-74972297D01*
X83335814Y-74809565D01*
X83336504Y-74803000D01*
X83316542Y-74613072D01*
X83257527Y-74431444D01*
X83162040Y-74266056D01*
X83149662Y-74252309D01*
X83118946Y-74188303D01*
X83127710Y-74117850D01*
X83149661Y-74083693D01*
X83162040Y-74069944D01*
X83257527Y-73904556D01*
X83316542Y-73722928D01*
X83336504Y-73533000D01*
X83322993Y-73404453D01*
X83317232Y-73349635D01*
X83317232Y-73349633D01*
X83316542Y-73343072D01*
X83257527Y-73161444D01*
X83162040Y-72996056D01*
X83136696Y-72967908D01*
X83038675Y-72859045D01*
X83038674Y-72859044D01*
X83034253Y-72854134D01*
X82879752Y-72741882D01*
X82873724Y-72739198D01*
X82873722Y-72739197D01*
X82711319Y-72666891D01*
X82711318Y-72666891D01*
X82705288Y-72664206D01*
X82603499Y-72642570D01*
X82524944Y-72625872D01*
X82524939Y-72625872D01*
X82518487Y-72624500D01*
X82327513Y-72624500D01*
X82321061Y-72625872D01*
X82321056Y-72625872D01*
X82242501Y-72642570D01*
X82140712Y-72664206D01*
X82134682Y-72666891D01*
X82134681Y-72666891D01*
X81972278Y-72739197D01*
X81972276Y-72739198D01*
X81966248Y-72741882D01*
X81811747Y-72854134D01*
X81807326Y-72859044D01*
X81807325Y-72859045D01*
X81709305Y-72967908D01*
X81683960Y-72996056D01*
X81588473Y-73161444D01*
X81529458Y-73343072D01*
X81528768Y-73349633D01*
X81528768Y-73349635D01*
X81523007Y-73404453D01*
X81509496Y-73533000D01*
X81529458Y-73722928D01*
X81588473Y-73904556D01*
X81683960Y-74069944D01*
X81696338Y-74083691D01*
X81727054Y-74147697D01*
X81718290Y-74218150D01*
X81696339Y-74252307D01*
X81683960Y-74266056D01*
X81588473Y-74431444D01*
X81529458Y-74613072D01*
X81509496Y-74803000D01*
X66219837Y-74803000D01*
X66215854Y-74793840D01*
X66094514Y-74606277D01*
X65944170Y-74441051D01*
X65940119Y-74437852D01*
X65940115Y-74437848D01*
X65772914Y-74305800D01*
X65772910Y-74305798D01*
X65768859Y-74302598D01*
X65727553Y-74279796D01*
X65677584Y-74229364D01*
X65662812Y-74159921D01*
X65687928Y-74093516D01*
X65715280Y-74066909D01*
X65759103Y-74035650D01*
X65894360Y-73939173D01*
X66052596Y-73781489D01*
X66112094Y-73698689D01*
X66179935Y-73604277D01*
X66182953Y-73600077D01*
X66216105Y-73533000D01*
X66279636Y-73404453D01*
X66279637Y-73404451D01*
X66281930Y-73399811D01*
X66346870Y-73186069D01*
X66376029Y-72964590D01*
X66377656Y-72898000D01*
X66359352Y-72675361D01*
X66304931Y-72458702D01*
X66215854Y-72253840D01*
X66094514Y-72066277D01*
X65944170Y-71901051D01*
X65940119Y-71897852D01*
X65940115Y-71897848D01*
X65772914Y-71765800D01*
X65772910Y-71765798D01*
X65768859Y-71762598D01*
X65727553Y-71739796D01*
X65677584Y-71689364D01*
X65662812Y-71619921D01*
X65687928Y-71553516D01*
X65715280Y-71526909D01*
X65759103Y-71495650D01*
X65894360Y-71399173D01*
X66052596Y-71241489D01*
X66112094Y-71158689D01*
X66179935Y-71064277D01*
X66182953Y-71060077D01*
X66281930Y-70859811D01*
X66346870Y-70646069D01*
X66376029Y-70424590D01*
X66377656Y-70358000D01*
X66359352Y-70135361D01*
X66304931Y-69918702D01*
X66215854Y-69713840D01*
X66094514Y-69526277D01*
X65944170Y-69361051D01*
X65940119Y-69357852D01*
X65940115Y-69357848D01*
X65772914Y-69225800D01*
X65772910Y-69225798D01*
X65768859Y-69222598D01*
X65573289Y-69114638D01*
X65568420Y-69112914D01*
X65568416Y-69112912D01*
X65367587Y-69041795D01*
X65367583Y-69041794D01*
X65362712Y-69040069D01*
X65357619Y-69039162D01*
X65357616Y-69039161D01*
X65147873Y-69001800D01*
X65147867Y-69001799D01*
X65142784Y-69000894D01*
X65068952Y-68999992D01*
X64924581Y-68998228D01*
X64924579Y-68998228D01*
X64919411Y-68998165D01*
X64698591Y-69031955D01*
X64486256Y-69101357D01*
X64288107Y-69204507D01*
X64283974Y-69207610D01*
X64283971Y-69207612D01*
X64259747Y-69225800D01*
X64109465Y-69338635D01*
X63955129Y-69500138D01*
X63829243Y-69684680D01*
X63735188Y-69887305D01*
X63675489Y-70102570D01*
X63651751Y-70324695D01*
X63652048Y-70329848D01*
X63652048Y-70329851D01*
X63657511Y-70424590D01*
X63664610Y-70547715D01*
X63665747Y-70552761D01*
X63665748Y-70552767D01*
X63685619Y-70640939D01*
X63713722Y-70765639D01*
X63797766Y-70972616D01*
X63914487Y-71163088D01*
X64060750Y-71331938D01*
X64232626Y-71474632D01*
X64303095Y-71515811D01*
X64305945Y-71517476D01*
X64354669Y-71569114D01*
X64367740Y-71638897D01*
X64341009Y-71704669D01*
X64300555Y-71738027D01*
X64288107Y-71744507D01*
X64283974Y-71747610D01*
X64283971Y-71747612D01*
X64259747Y-71765800D01*
X64109465Y-71878635D01*
X63955129Y-72040138D01*
X63829243Y-72224680D01*
X63735188Y-72427305D01*
X63675489Y-72642570D01*
X63651751Y-72864695D01*
X63652048Y-72869848D01*
X63652048Y-72869851D01*
X63657511Y-72964590D01*
X63664610Y-73087715D01*
X63665747Y-73092761D01*
X63665748Y-73092767D01*
X63679936Y-73155721D01*
X63713722Y-73305639D01*
X63797766Y-73512616D01*
X63914487Y-73703088D01*
X64060750Y-73871938D01*
X64232626Y-74014632D01*
X64303095Y-74055811D01*
X64305945Y-74057476D01*
X64354669Y-74109114D01*
X64367740Y-74178897D01*
X64341009Y-74244669D01*
X64300555Y-74278027D01*
X64288107Y-74284507D01*
X64283974Y-74287610D01*
X64283971Y-74287612D01*
X64259747Y-74305800D01*
X64109465Y-74418635D01*
X63955129Y-74580138D01*
X63952215Y-74584410D01*
X63952214Y-74584411D01*
X63934338Y-74610617D01*
X63829243Y-74764680D01*
X63735188Y-74967305D01*
X63675489Y-75182570D01*
X63651751Y-75404695D01*
X63652048Y-75409848D01*
X63652048Y-75409851D01*
X63657511Y-75504590D01*
X63664610Y-75627715D01*
X63665747Y-75632761D01*
X63665748Y-75632767D01*
X63674853Y-75673166D01*
X63713722Y-75845639D01*
X63797766Y-76052616D01*
X63914487Y-76243088D01*
X64060750Y-76411938D01*
X64232626Y-76554632D01*
X64303095Y-76595811D01*
X64305945Y-76597476D01*
X64354669Y-76649114D01*
X64367740Y-76718897D01*
X64341009Y-76784669D01*
X64300555Y-76818027D01*
X64288107Y-76824507D01*
X64283974Y-76827610D01*
X64283971Y-76827612D01*
X64259747Y-76845800D01*
X64109465Y-76958635D01*
X63955129Y-77120138D01*
X63829243Y-77304680D01*
X63735188Y-77507305D01*
X63675489Y-77722570D01*
X63651751Y-77944695D01*
X63652048Y-77949848D01*
X63652048Y-77949851D01*
X63657511Y-78044590D01*
X63664610Y-78167715D01*
X63665747Y-78172761D01*
X63665748Y-78172767D01*
X63679486Y-78233726D01*
X63713722Y-78385639D01*
X63797766Y-78592616D01*
X63914487Y-78783088D01*
X64060750Y-78951938D01*
X64232626Y-79094632D01*
X64303095Y-79135811D01*
X64305945Y-79137476D01*
X64354669Y-79189114D01*
X64367740Y-79258897D01*
X64341009Y-79324669D01*
X64300555Y-79358027D01*
X64288107Y-79364507D01*
X64283974Y-79367610D01*
X64283971Y-79367612D01*
X64259747Y-79385800D01*
X64109465Y-79498635D01*
X63955129Y-79660138D01*
X63829243Y-79844680D01*
X63735188Y-80047305D01*
X63675489Y-80262570D01*
X63651751Y-80484695D01*
X63652048Y-80489848D01*
X63652048Y-80489851D01*
X63657511Y-80584590D01*
X63664610Y-80707715D01*
X63665747Y-80712761D01*
X63665748Y-80712767D01*
X63685619Y-80800939D01*
X63713722Y-80925639D01*
X63797766Y-81132616D01*
X63828115Y-81182141D01*
X63876448Y-81261013D01*
X63914487Y-81323088D01*
X64060750Y-81491938D01*
X64232626Y-81634632D01*
X64293911Y-81670444D01*
X64305945Y-81677476D01*
X64354669Y-81729114D01*
X64367740Y-81798897D01*
X64341009Y-81864669D01*
X64300555Y-81898027D01*
X64288107Y-81904507D01*
X64283974Y-81907610D01*
X64283971Y-81907612D01*
X64259747Y-81925800D01*
X64109465Y-82038635D01*
X63955129Y-82200138D01*
X63829243Y-82384680D01*
X63735188Y-82587305D01*
X63675489Y-82802570D01*
X63651751Y-83024695D01*
X59182000Y-83024695D01*
X59182000Y-57530000D01*
X59202002Y-57461879D01*
X59255658Y-57415386D01*
X59308000Y-57404000D01*
X61471080Y-57404000D01*
X61539201Y-57424002D01*
G37*
%TD.AperFunction*%
%TD*%
%TA.AperFunction,Conductor*%
%TO.N,E_IGBT*%
G36*
X97976584Y-59710002D02*
G01*
X98023077Y-59763658D01*
X98033181Y-59833932D01*
X98025370Y-59862996D01*
X97982844Y-59968783D01*
X97937287Y-60188767D01*
X97934000Y-60245775D01*
X97934000Y-61890999D01*
X97934249Y-61893786D01*
X97934249Y-61893792D01*
X97940509Y-61963929D01*
X97948883Y-62057762D01*
X98008163Y-62274451D01*
X98104878Y-62477218D01*
X98235971Y-62659654D01*
X98397299Y-62815992D01*
X98583762Y-62941290D01*
X98789467Y-63031588D01*
X98794918Y-63032897D01*
X98794922Y-63032898D01*
X99002454Y-63082722D01*
X99007911Y-63084032D01*
X99091975Y-63088879D01*
X99226583Y-63096640D01*
X99226586Y-63096640D01*
X99232190Y-63096963D01*
X99455215Y-63069975D01*
X99669935Y-63003918D01*
X99674915Y-63001348D01*
X99674919Y-63001346D01*
X99864581Y-62903454D01*
X99864582Y-62903454D01*
X99869564Y-62900882D01*
X100047792Y-62764123D01*
X100198985Y-62597964D01*
X100318364Y-62407656D01*
X100402156Y-62199217D01*
X100447713Y-61979233D01*
X100451000Y-61922225D01*
X100451000Y-60277001D01*
X100448051Y-60243952D01*
X100436616Y-60115833D01*
X100436117Y-60110238D01*
X100376837Y-59893549D01*
X100365721Y-59870243D01*
X100354448Y-59800149D01*
X100382861Y-59735086D01*
X100441939Y-59695712D01*
X100479447Y-59690000D01*
X101728000Y-59690000D01*
X101796121Y-59710002D01*
X101842614Y-59763658D01*
X101854000Y-59816000D01*
X101854000Y-97156000D01*
X101833998Y-97224121D01*
X101780342Y-97270614D01*
X101728000Y-97282000D01*
X93344000Y-97282000D01*
X93275879Y-97261998D01*
X93229386Y-97208342D01*
X93218000Y-97156000D01*
X93218000Y-88646000D01*
X93574496Y-88646000D01*
X93594458Y-88835928D01*
X93653473Y-89017556D01*
X93748960Y-89182944D01*
X93876747Y-89324866D01*
X94031248Y-89437118D01*
X94037276Y-89439802D01*
X94037278Y-89439803D01*
X94199681Y-89512109D01*
X94205712Y-89514794D01*
X94299113Y-89534647D01*
X94386056Y-89553128D01*
X94386061Y-89553128D01*
X94392513Y-89554500D01*
X94583487Y-89554500D01*
X94589939Y-89553128D01*
X94589944Y-89553128D01*
X94676887Y-89534647D01*
X94770288Y-89514794D01*
X94776319Y-89512109D01*
X94938722Y-89439803D01*
X94938724Y-89439802D01*
X94944752Y-89437118D01*
X95099253Y-89324866D01*
X95227040Y-89182944D01*
X95322527Y-89017556D01*
X95381542Y-88835928D01*
X95401504Y-88646000D01*
X95381542Y-88456072D01*
X95322527Y-88274444D01*
X95227040Y-88109056D01*
X95099253Y-87967134D01*
X94944752Y-87854882D01*
X94938724Y-87852198D01*
X94938722Y-87852197D01*
X94776319Y-87779891D01*
X94776318Y-87779891D01*
X94770288Y-87777206D01*
X94676887Y-87757353D01*
X94589944Y-87738872D01*
X94589939Y-87738872D01*
X94583487Y-87737500D01*
X94392513Y-87737500D01*
X94386061Y-87738872D01*
X94386056Y-87738872D01*
X94299113Y-87757353D01*
X94205712Y-87777206D01*
X94199682Y-87779891D01*
X94199681Y-87779891D01*
X94037278Y-87852197D01*
X94037276Y-87852198D01*
X94031248Y-87854882D01*
X93876747Y-87967134D01*
X93748960Y-88109056D01*
X93653473Y-88274444D01*
X93594458Y-88456072D01*
X93574496Y-88646000D01*
X93218000Y-88646000D01*
X93218000Y-75564000D01*
X93238002Y-75495879D01*
X93291658Y-75449386D01*
X93344000Y-75438000D01*
X97143334Y-75438000D01*
X97211455Y-75458002D01*
X97257948Y-75511658D01*
X97268052Y-75581932D01*
X97252453Y-75627000D01*
X97209473Y-75701444D01*
X97150458Y-75883072D01*
X97130496Y-76073000D01*
X97150458Y-76262928D01*
X97209473Y-76444556D01*
X97304960Y-76609944D01*
X97432747Y-76751866D01*
X97587248Y-76864118D01*
X97593276Y-76866802D01*
X97593278Y-76866803D01*
X97755681Y-76939109D01*
X97761712Y-76941794D01*
X97855113Y-76961647D01*
X97942056Y-76980128D01*
X97942061Y-76980128D01*
X97948513Y-76981500D01*
X98139487Y-76981500D01*
X98145939Y-76980128D01*
X98145944Y-76980128D01*
X98232887Y-76961647D01*
X98326288Y-76941794D01*
X98332319Y-76939109D01*
X98494722Y-76866803D01*
X98494724Y-76866802D01*
X98500752Y-76864118D01*
X98655253Y-76751866D01*
X98783040Y-76609944D01*
X98878527Y-76444556D01*
X98937542Y-76262928D01*
X98957504Y-76073000D01*
X98937542Y-75883072D01*
X98878527Y-75701444D01*
X98783040Y-75536056D01*
X98655253Y-75394134D01*
X98603939Y-75356852D01*
X98560585Y-75300629D01*
X98552000Y-75254916D01*
X98552000Y-68580000D01*
X93344000Y-68580000D01*
X93275879Y-68559998D01*
X93229386Y-68506342D01*
X93218000Y-68454000D01*
X93218000Y-62985740D01*
X93238002Y-62917619D01*
X93291658Y-62871126D01*
X93361932Y-62861022D01*
X93414276Y-62881158D01*
X93447456Y-62903454D01*
X93503762Y-62941290D01*
X93709467Y-63031588D01*
X93714918Y-63032897D01*
X93714922Y-63032898D01*
X93922454Y-63082722D01*
X93927911Y-63084032D01*
X94011975Y-63088879D01*
X94146583Y-63096640D01*
X94146586Y-63096640D01*
X94152190Y-63096963D01*
X94375215Y-63069975D01*
X94589935Y-63003918D01*
X94594915Y-63001348D01*
X94594919Y-63001346D01*
X94784581Y-62903454D01*
X94784582Y-62903454D01*
X94789564Y-62900882D01*
X94967792Y-62764123D01*
X95118985Y-62597964D01*
X95238364Y-62407656D01*
X95322156Y-62199217D01*
X95367713Y-61979233D01*
X95371000Y-61922225D01*
X95371000Y-60277001D01*
X95368051Y-60243952D01*
X95356616Y-60115833D01*
X95356117Y-60110238D01*
X95296837Y-59893549D01*
X95285721Y-59870243D01*
X95274448Y-59800149D01*
X95302861Y-59735086D01*
X95361939Y-59695712D01*
X95399447Y-59690000D01*
X97908463Y-59690000D01*
X97976584Y-59710002D01*
G37*
%TD.AperFunction*%
%TD*%
M02*
