M48
; DRILL file {KiCad (6.0.1)} date Mon Aug 22 15:24:14 2022
; FORMAT={-:-/ absolute / metric / decimal}
; #@! TF.CreationDate,2022-08-22T15:24:14+03:00
; #@! TF.GenerationSoftware,Kicad,Pcbnew,(6.0.1)
; #@! TF.FileFunction,Plated,1,4,PTH
FMAT,2
METRIC
; #@! TA.AperFunction,Plated,PTH,ViaDrill
T1C0.400
; #@! TA.AperFunction,Plated,PTH,ComponentDrill
T2C0.800
; #@! TA.AperFunction,Plated,PTH,ComponentDrill
T3C1.000
; #@! TA.AperFunction,Plated,PTH,ComponentDrill
T4C2.690
; #@! TA.AperFunction,Plated,PTH,ComponentDrill
T5C3.000
%
G90
G05
T1
X74.168Y-64.262
X74.206Y-61.175
X74.93Y-85.344
X77.21Y-82.048
X77.216Y-88.392
X79.502Y-82.063
X81.788Y-77.703
X81.788Y-79.778
X81.788Y-82.042
X81.788Y-85.344
X81.788Y-88.376
X82.423Y-69.723
X82.423Y-73.533
X82.423Y-74.803
X94.488Y-88.646
X96.393Y-69.723
X96.393Y-73.533
X96.393Y-76.073
X96.393Y-78.613
X97.536Y-88.646
X98.044Y-68.072
X98.044Y-76.073
T3
X62.474Y-70.358
X62.474Y-72.898
X62.474Y-75.438
X62.474Y-77.978
X62.474Y-80.518
X62.474Y-83.058
X62.474Y-85.598
X65.014Y-70.358
X65.014Y-72.898
X65.014Y-75.438
X65.014Y-77.978
X65.014Y-80.518
X65.014Y-83.058
X65.014Y-85.598
X81.412Y-61.084
X83.953Y-61.084
X86.492Y-61.084
X91.572Y-61.084
X94.112Y-61.084
X96.652Y-61.084
X99.192Y-61.084
T4
X63.994Y-61.418
X63.994Y-94.538
T5
X118.618Y-72.027
T2
G00X116.504Y-50.87
M15
G01X116.504Y-53.27
M16
G05
G00X121.204Y-50.87
M15
G01X121.204Y-53.27
M16
G05
T0
M30
