%TF.GenerationSoftware,KiCad,Pcbnew,(6.0.1)*%
%TF.CreationDate,2022-08-22T15:24:11+03:00*%
%TF.ProjectId,Driver_Board,44726976-6572-45f4-926f-6172642e6b69,rev?*%
%TF.SameCoordinates,Original*%
%TF.FileFunction,Copper,L1,Top*%
%TF.FilePolarity,Positive*%
%FSLAX46Y46*%
G04 Gerber Fmt 4.6, Leading zero omitted, Abs format (unit mm)*
G04 Created by KiCad (PCBNEW (6.0.1)) date 2022-08-22 15:24:11*
%MOMM*%
%LPD*%
G01*
G04 APERTURE LIST*
G04 Aperture macros list*
%AMRoundRect*
0 Rectangle with rounded corners*
0 $1 Rounding radius*
0 $2 $3 $4 $5 $6 $7 $8 $9 X,Y pos of 4 corners*
0 Add a 4 corners polygon primitive as box body*
4,1,4,$2,$3,$4,$5,$6,$7,$8,$9,$2,$3,0*
0 Add four circle primitives for the rounded corners*
1,1,$1+$1,$2,$3*
1,1,$1+$1,$4,$5*
1,1,$1+$1,$6,$7*
1,1,$1+$1,$8,$9*
0 Add four rect primitives between the rounded corners*
20,1,$1+$1,$2,$3,$4,$5,0*
20,1,$1+$1,$4,$5,$6,$7,0*
20,1,$1+$1,$6,$7,$8,$9,0*
20,1,$1+$1,$8,$9,$2,$3,0*%
G04 Aperture macros list end*
%TA.AperFunction,ComponentPad*%
%ADD10RoundRect,0.375000X-0.375000X-1.625000X0.375000X-1.625000X0.375000X1.625000X-0.375000X1.625000X0*%
%TD*%
%TA.AperFunction,SMDPad,CuDef*%
%ADD11RoundRect,0.250000X-0.475000X0.337500X-0.475000X-0.337500X0.475000X-0.337500X0.475000X0.337500X0*%
%TD*%
%TA.AperFunction,SMDPad,CuDef*%
%ADD12RoundRect,0.250000X0.625000X-0.400000X0.625000X0.400000X-0.625000X0.400000X-0.625000X-0.400000X0*%
%TD*%
%TA.AperFunction,SMDPad,CuDef*%
%ADD13RoundRect,0.250000X0.450000X-0.350000X0.450000X0.350000X-0.450000X0.350000X-0.450000X-0.350000X0*%
%TD*%
%TA.AperFunction,SMDPad,CuDef*%
%ADD14RoundRect,0.250000X-0.450000X0.350000X-0.450000X-0.350000X0.450000X-0.350000X0.450000X0.350000X0*%
%TD*%
%TA.AperFunction,ComponentPad*%
%ADD15RoundRect,0.250000X0.600000X0.600000X-0.600000X0.600000X-0.600000X-0.600000X0.600000X-0.600000X0*%
%TD*%
%TA.AperFunction,ComponentPad*%
%ADD16C,1.700000*%
%TD*%
%TA.AperFunction,ComponentPad*%
%ADD17C,8.000000*%
%TD*%
%TA.AperFunction,SMDPad,CuDef*%
%ADD18RoundRect,0.250000X1.100000X-0.412500X1.100000X0.412500X-1.100000X0.412500X-1.100000X-0.412500X0*%
%TD*%
%TA.AperFunction,ComponentPad*%
%ADD19C,5.000000*%
%TD*%
%TA.AperFunction,SMDPad,CuDef*%
%ADD20RoundRect,0.250000X0.475000X-0.337500X0.475000X0.337500X-0.475000X0.337500X-0.475000X-0.337500X0*%
%TD*%
%TA.AperFunction,SMDPad,CuDef*%
%ADD21RoundRect,0.250000X0.450000X-0.325000X0.450000X0.325000X-0.450000X0.325000X-0.450000X-0.325000X0*%
%TD*%
%TA.AperFunction,SMDPad,CuDef*%
%ADD22R,1.800000X3.500000*%
%TD*%
%TA.AperFunction,SMDPad,CuDef*%
%ADD23R,1.200000X0.900000*%
%TD*%
%TA.AperFunction,ComponentPad*%
%ADD24R,1.500000X3.000000*%
%TD*%
%TA.AperFunction,ComponentPad*%
%ADD25O,1.500000X3.000000*%
%TD*%
%TA.AperFunction,SMDPad,CuDef*%
%ADD26RoundRect,0.150000X-0.875000X-0.150000X0.875000X-0.150000X0.875000X0.150000X-0.875000X0.150000X0*%
%TD*%
%TA.AperFunction,SMDPad,CuDef*%
%ADD27R,0.900000X1.200000*%
%TD*%
%TA.AperFunction,SMDPad,CuDef*%
%ADD28RoundRect,0.250000X-0.400000X-0.625000X0.400000X-0.625000X0.400000X0.625000X-0.400000X0.625000X0*%
%TD*%
%TA.AperFunction,SMDPad,CuDef*%
%ADD29RoundRect,0.250000X-0.450000X0.325000X-0.450000X-0.325000X0.450000X-0.325000X0.450000X0.325000X0*%
%TD*%
%TA.AperFunction,ViaPad*%
%ADD30C,0.800000*%
%TD*%
%TA.AperFunction,Conductor*%
%ADD31C,0.500000*%
%TD*%
%TA.AperFunction,Conductor*%
%ADD32C,1.500000*%
%TD*%
%TA.AperFunction,Conductor*%
%ADD33C,1.000000*%
%TD*%
G04 APERTURE END LIST*
D10*
%TO.P,J3,3,Pin_3*%
%TO.N,E_IGBT*%
X116504000Y-52070000D03*
%TO.P,J3,4,Pin_4*%
%TO.N,G_IGBT*%
X121204000Y-52070000D03*
%TD*%
D11*
%TO.P,C3,1*%
%TO.N,Desat*%
X97536000Y-85068500D03*
%TO.P,C3,2*%
%TO.N,E_IGBT*%
X97536000Y-87143500D03*
%TD*%
D12*
%TO.P,R8,1*%
%TO.N,Net-(D1-Pad12)*%
X121158000Y-61468000D03*
%TO.P,R8,2*%
%TO.N,G_IGBT*%
X121158000Y-58368000D03*
%TD*%
D13*
%TO.P,R13,1*%
%TO.N,RDY*%
X79502000Y-88376000D03*
%TO.P,R13,2*%
%TO.N,Net-(D7-Pad2)*%
X79502000Y-86376000D03*
%TD*%
D12*
%TO.P,R7,1*%
%TO.N,Net-(D1-Pad14)*%
X113030000Y-61468000D03*
%TO.P,R7,2*%
%TO.N,G_IGBT*%
X113030000Y-58368000D03*
%TD*%
D14*
%TO.P,R14,1*%
%TO.N,+5VD*%
X79502000Y-82079500D03*
%TO.P,R14,2*%
%TO.N,Net-(D8-Pad2)*%
X79502000Y-84079500D03*
%TD*%
D15*
%TO.P,J1,1,Pin_1*%
%TO.N,RDY*%
X65014500Y-85598000D03*
D16*
%TO.P,J1,2,Pin_2*%
%TO.N,GNDA*%
X62474500Y-85598000D03*
%TO.P,J1,3,Pin_3*%
%TO.N,FLT*%
X65014500Y-83058000D03*
%TO.P,J1,4,Pin_4*%
%TO.N,GNDA*%
X62474500Y-83058000D03*
%TO.P,J1,5,Pin_5*%
%TO.N,RST*%
X65014500Y-80518000D03*
%TO.P,J1,6,Pin_6*%
%TO.N,GNDA*%
X62474500Y-80518000D03*
%TO.P,J1,7,Pin_7*%
%TO.N,IN-*%
X65014500Y-77978000D03*
%TO.P,J1,8,Pin_8*%
%TO.N,GNDA*%
X62474500Y-77978000D03*
%TO.P,J1,9,Pin_9*%
%TO.N,IN+*%
X65014500Y-75438000D03*
%TO.P,J1,10,Pin_10*%
%TO.N,GNDA*%
X62474500Y-75438000D03*
%TO.P,J1,11,Pin_11*%
%TO.N,+5VD*%
X65014500Y-72898000D03*
%TO.P,J1,12,Pin_12*%
%TO.N,GNDA*%
X62474500Y-72898000D03*
%TO.P,J1,13,Pin_13*%
%TO.N,VAA*%
X65014500Y-70358000D03*
%TO.P,J1,14,Pin_14*%
%TO.N,GNDA*%
X62474500Y-70358000D03*
D17*
%TO.P,J1,MP*%
%TO.N,N/C*%
X63994500Y-61418000D03*
X63994500Y-94538000D03*
%TD*%
D18*
%TO.P,C6,1*%
%TO.N,VAA*%
X76962000Y-64300500D03*
%TO.P,C6,2*%
%TO.N,GNDA*%
X76962000Y-61175500D03*
%TD*%
D19*
%TO.P,J4,1,Pin_1*%
%TO.N,C_IGBT*%
X118618000Y-72027000D03*
%TD*%
D20*
%TO.P,C7,1*%
%TO.N,GNDA*%
X79502000Y-79777500D03*
%TO.P,C7,2*%
%TO.N,Net-(C7-Pad2)*%
X79502000Y-77702500D03*
%TD*%
D21*
%TO.P,D7,1,K*%
%TO.N,GNDA*%
X77216000Y-88401000D03*
%TO.P,D7,2,A*%
%TO.N,Net-(D7-Pad2)*%
X77216000Y-86351000D03*
%TD*%
D12*
%TO.P,R5,1*%
%TO.N,Net-(D1-Pad12)*%
X116078000Y-61468000D03*
%TO.P,R5,2*%
%TO.N,G_IGBT*%
X116078000Y-58368000D03*
%TD*%
D22*
%TO.P,D6,1,K*%
%TO.N,C_IGBT*%
X118618000Y-78780000D03*
%TO.P,D6,2,A*%
%TO.N,Net-(D4-Pad2)*%
X118618000Y-83780000D03*
%TD*%
D23*
%TO.P,D3,1,K*%
%TO.N,Desat*%
X100330000Y-84456000D03*
%TO.P,D3,2,A*%
%TO.N,E_IGBT*%
X100330000Y-87756000D03*
%TD*%
D14*
%TO.P,R2,1*%
%TO.N,+5VD*%
X81788000Y-86376000D03*
%TO.P,R2,2*%
%TO.N,RDY*%
X81788000Y-88376000D03*
%TD*%
D20*
%TO.P,C1,1*%
%TO.N,GNDA*%
X81788000Y-79777500D03*
%TO.P,C1,2*%
%TO.N,+5VD*%
X81788000Y-77702500D03*
%TD*%
%TO.P,C4,1*%
%TO.N,RDY*%
X74930000Y-88413500D03*
%TO.P,C4,2*%
%TO.N,GNDA*%
X74930000Y-86338500D03*
%TD*%
D14*
%TO.P,R10,1*%
%TO.N,IN+*%
X79756000Y-70628000D03*
%TO.P,R10,2*%
%TO.N,IN-*%
X79756000Y-72628000D03*
%TD*%
D11*
%TO.P,C5,1*%
%TO.N,FLT*%
X74930000Y-82042000D03*
%TO.P,C5,2*%
%TO.N,GNDA*%
X74930000Y-84117000D03*
%TD*%
D12*
%TO.P,R4,1*%
%TO.N,Net-(D1-Pad14)*%
X110490000Y-61468000D03*
%TO.P,R4,2*%
%TO.N,G_IGBT*%
X110490000Y-58368000D03*
%TD*%
D24*
%TO.P,U1,1,-VIN*%
%TO.N,GNDA*%
X81412500Y-61084000D03*
D25*
%TO.P,U1,2,+VIN*%
%TO.N,VAA*%
X83952500Y-61084000D03*
%TO.P,U1,3,ON/~{OFF}*%
%TO.N,unconnected-(U1-Pad3)*%
X86492500Y-61084000D03*
%TO.P,U1,5,NC*%
%TO.N,unconnected-(U1-Pad5)*%
X91572500Y-61084000D03*
%TO.P,U1,6,+VOUT*%
%TO.N,+15V*%
X94112500Y-61084000D03*
%TO.P,U1,7,-VOUT*%
%TO.N,E_IGBT*%
X96652500Y-61084000D03*
%TO.P,U1,8,NC*%
%TO.N,unconnected-(U1-Pad8)*%
X99192500Y-61084000D03*
%TD*%
D26*
%TO.P,D1,1,Vss1*%
%TO.N,GNDA*%
X84758000Y-69723000D03*
%TO.P,D1,2,Vi+*%
%TO.N,IN+*%
X84758000Y-70993000D03*
%TO.P,D1,3,Vi-*%
%TO.N,IN-*%
X84758000Y-72263000D03*
%TO.P,D1,4,READY*%
%TO.N,RDY*%
X84758000Y-73533000D03*
%TO.P,D1,5,~{FAULT}*%
%TO.N,FLT*%
X84758000Y-74803000D03*
%TO.P,D1,6,~{RESET}*%
%TO.N,Net-(C7-Pad2)*%
X84758000Y-76073000D03*
%TO.P,D1,7,Vdd1*%
%TO.N,+5VD*%
X84758000Y-77343000D03*
%TO.P,D1,8,Vss1*%
%TO.N,GNDA*%
X84758000Y-78613000D03*
%TO.P,D1,9,Vss2*%
%TO.N,E_IGBT*%
X94058000Y-78613000D03*
%TO.P,D1,10,DESAT*%
%TO.N,Desat*%
X94058000Y-77343000D03*
%TO.P,D1,11,GND2*%
%TO.N,E_IGBT*%
X94058000Y-76073000D03*
%TO.P,D1,12,Vout_off*%
%TO.N,Net-(D1-Pad12)*%
X94058000Y-74803000D03*
%TO.P,D1,13,Vdd2*%
%TO.N,+15V*%
X94058000Y-73533000D03*
%TO.P,D1,14,Vout_on*%
%TO.N,Net-(D1-Pad14)*%
X94058000Y-72263000D03*
%TO.P,D1,15,GATE_SENSE*%
%TO.N,G_IGBT*%
X94058000Y-70993000D03*
%TO.P,D1,16,Vss2*%
%TO.N,E_IGBT*%
X94058000Y-69723000D03*
%TD*%
D27*
%TO.P,D4,1,K*%
%TO.N,Net-(D4-Pad1)*%
X110110000Y-84328000D03*
%TO.P,D4,2,A*%
%TO.N,Net-(D4-Pad2)*%
X113410000Y-84328000D03*
%TD*%
D12*
%TO.P,R9,1*%
%TO.N,Net-(D1-Pad12)*%
X118618000Y-61468000D03*
%TO.P,R9,2*%
%TO.N,G_IGBT*%
X118618000Y-58368000D03*
%TD*%
D28*
%TO.P,R3,1*%
%TO.N,Desat*%
X103606000Y-84328000D03*
%TO.P,R3,2*%
%TO.N,Net-(D4-Pad1)*%
X106706000Y-84328000D03*
%TD*%
D14*
%TO.P,R15,1*%
%TO.N,Desat*%
X94488000Y-85106000D03*
%TO.P,R15,2*%
%TO.N,+15V*%
X94488000Y-87106000D03*
%TD*%
D29*
%TO.P,D8,1,K*%
%TO.N,FLT*%
X77216000Y-82054500D03*
%TO.P,D8,2,A*%
%TO.N,Net-(D8-Pad2)*%
X77216000Y-84104500D03*
%TD*%
D12*
%TO.P,R6,1*%
%TO.N,Net-(D1-Pad14)*%
X107950000Y-61468000D03*
%TO.P,R6,2*%
%TO.N,G_IGBT*%
X107950000Y-58368000D03*
%TD*%
D13*
%TO.P,R1,1*%
%TO.N,RST*%
X77216000Y-79740000D03*
%TO.P,R1,2*%
%TO.N,Net-(C7-Pad2)*%
X77216000Y-77740000D03*
%TD*%
%TO.P,R12,1*%
%TO.N,+5VD*%
X81788000Y-84079500D03*
%TO.P,R12,2*%
%TO.N,FLT*%
X81788000Y-82079500D03*
%TD*%
D30*
%TO.N,GNDA*%
X77216000Y-88392000D03*
X74206500Y-61175500D03*
X81788000Y-79777500D03*
X82423000Y-69723000D03*
X74930000Y-85344000D03*
%TO.N,RDY*%
X82423000Y-73533000D03*
X81788000Y-88376000D03*
%TO.N,FLT*%
X81788000Y-82042000D03*
X82423000Y-74803000D03*
X77209750Y-82048250D03*
%TO.N,+15V*%
X94488000Y-88646000D03*
X98044000Y-76073000D03*
X96393000Y-73533000D03*
%TO.N,VAA*%
X74168000Y-64262000D03*
%TO.N,E_IGBT*%
X96393000Y-76073000D03*
X96393000Y-69723000D03*
X97536000Y-88646000D03*
X96393000Y-78613000D03*
X98044000Y-68072000D03*
%TO.N,+5VD*%
X79502000Y-82063500D03*
X81788000Y-85344000D03*
X81788000Y-77702500D03*
%TD*%
D31*
%TO.N,Desat*%
X97498500Y-85106000D02*
X97536000Y-85068500D01*
X103606000Y-79476000D02*
X101473000Y-77343000D01*
X100330000Y-84456000D02*
X103478000Y-84456000D01*
X99717500Y-85068500D02*
X100330000Y-84456000D01*
X97536000Y-85068500D02*
X99717500Y-85068500D01*
X103606000Y-84328000D02*
X103606000Y-79476000D01*
X94488000Y-85106000D02*
X97498500Y-85106000D01*
X103478000Y-84456000D02*
X103606000Y-84328000D01*
X94058000Y-77343000D02*
X101473000Y-77343000D01*
%TO.N,G_IGBT*%
X94058000Y-70993000D02*
X97663000Y-70993000D01*
D32*
X107950000Y-58368000D02*
X105436000Y-58368000D01*
X101854000Y-69850000D02*
X100584000Y-69850000D01*
D31*
X100584000Y-69850000D02*
X98806000Y-69850000D01*
D32*
X104140000Y-67564000D02*
X101854000Y-69850000D01*
X104140000Y-59664000D02*
X104140000Y-67564000D01*
D31*
X98806000Y-69850000D02*
X97663000Y-70993000D01*
D32*
X105436000Y-58368000D02*
X104140000Y-59664000D01*
D33*
%TO.N,GNDA*%
X76962000Y-61175500D02*
X81321000Y-61175500D01*
X81321000Y-61175500D02*
X81412500Y-61084000D01*
D31*
X74930000Y-85344000D02*
X74930000Y-86338500D01*
X84758000Y-69723000D02*
X82423000Y-69723000D01*
X74930000Y-84117000D02*
X74930000Y-85344000D01*
X84758000Y-78613000D02*
X82952500Y-78613000D01*
X82952500Y-78613000D02*
X81788000Y-79777500D01*
D33*
X76962000Y-61175500D02*
X74206500Y-61175500D01*
D31*
X79502000Y-79777500D02*
X81788000Y-79777500D01*
%TO.N,IN+*%
X79756000Y-70628000D02*
X79131001Y-71252999D01*
X66493839Y-75438000D02*
X65014500Y-75438000D01*
X79131001Y-71252999D02*
X70678840Y-71252999D01*
X70678840Y-71252999D02*
X66493839Y-75438000D01*
X84758000Y-70993000D02*
X80121000Y-70993000D01*
X80121000Y-70993000D02*
X79756000Y-70628000D01*
%TO.N,IN-*%
X84758000Y-72263000D02*
X80121000Y-72263000D01*
X79756000Y-72628000D02*
X79131001Y-72003001D01*
X80121000Y-72263000D02*
X79756000Y-72628000D01*
X79131001Y-72003001D02*
X70989499Y-72003001D01*
X70989499Y-72003001D02*
X65014500Y-77978000D01*
%TO.N,RDY*%
X81788000Y-89408000D02*
X81788000Y-88376000D01*
X74930000Y-89408000D02*
X75692000Y-90170000D01*
X74930000Y-88413500D02*
X74930000Y-89408000D01*
X79502000Y-88376000D02*
X81788000Y-88376000D01*
X81026000Y-90170000D02*
X81788000Y-89408000D01*
X74930000Y-88413500D02*
X67830000Y-88413500D01*
X67830000Y-88413500D02*
X65014500Y-85598000D01*
X84758000Y-73533000D02*
X82423000Y-73533000D01*
X75692000Y-90170000D02*
X81026000Y-90170000D01*
%TO.N,FLT*%
X84758000Y-74803000D02*
X82423000Y-74803000D01*
X77203500Y-82042000D02*
X77209750Y-82048250D01*
X66030500Y-82042000D02*
X65014500Y-83058000D01*
X77209750Y-82048250D02*
X77216000Y-82054500D01*
X74930000Y-82042000D02*
X77203500Y-82042000D01*
X74930000Y-82042000D02*
X66030500Y-82042000D01*
%TO.N,RST*%
X76438000Y-80518000D02*
X77216000Y-79740000D01*
X65014500Y-80518000D02*
X76438000Y-80518000D01*
D33*
%TO.N,Net-(D4-Pad2)*%
X113410000Y-84328000D02*
X118070000Y-84328000D01*
X118070000Y-84328000D02*
X118618000Y-83780000D01*
D32*
%TO.N,Net-(D1-Pad12)*%
X116078000Y-61468000D02*
X116078000Y-64008000D01*
X116078000Y-64008000D02*
X105410000Y-74676000D01*
X116078000Y-61468000D02*
X118618000Y-61468000D01*
X121158000Y-61468000D02*
X118618000Y-61468000D01*
X105410000Y-74676000D02*
X105156000Y-74676000D01*
X105156000Y-74676000D02*
X100584000Y-74676000D01*
D31*
X100457000Y-74803000D02*
X100584000Y-74676000D01*
X94058000Y-74803000D02*
X100457000Y-74803000D01*
D32*
%TO.N,Net-(D1-Pad14)*%
X103251000Y-72263000D02*
X100457000Y-72263000D01*
X110490000Y-61468000D02*
X110490000Y-65024000D01*
X110490000Y-61468000D02*
X107950000Y-61468000D01*
D31*
X94058000Y-72263000D02*
X100457000Y-72263000D01*
D32*
X110490000Y-65024000D02*
X103251000Y-72263000D01*
X113030000Y-61468000D02*
X110490000Y-61468000D01*
D33*
%TO.N,C_IGBT*%
X118618000Y-78780000D02*
X118618000Y-72027000D01*
D31*
%TO.N,+15V*%
X94058000Y-73533000D02*
X96393000Y-73533000D01*
X94488000Y-87106000D02*
X94488000Y-88646000D01*
%TO.N,Net-(D7-Pad2)*%
X79477000Y-86351000D02*
X79502000Y-86376000D01*
X77216000Y-86351000D02*
X79477000Y-86351000D01*
%TO.N,Net-(D8-Pad2)*%
X77216000Y-84104500D02*
X79477000Y-84104500D01*
X79477000Y-84104500D02*
X79502000Y-84079500D01*
D33*
%TO.N,VAA*%
X83019500Y-64300500D02*
X83952500Y-63367500D01*
X83952500Y-63367500D02*
X83952500Y-61084000D01*
X76962000Y-64300500D02*
X74206500Y-64300500D01*
X76962000Y-64300500D02*
X83019500Y-64300500D01*
D31*
%TO.N,E_IGBT*%
X97536000Y-87143500D02*
X99717500Y-87143500D01*
X94058000Y-78613000D02*
X96393000Y-78613000D01*
X94058000Y-76073000D02*
X96393000Y-76073000D01*
X94058000Y-69723000D02*
X96393000Y-69723000D01*
X99717500Y-87143500D02*
X100330000Y-87756000D01*
X97536000Y-87143500D02*
X97536000Y-88646000D01*
%TO.N,+5VD*%
X82147500Y-77343000D02*
X81788000Y-77702500D01*
X84758000Y-77343000D02*
X82147500Y-77343000D01*
X81788000Y-84079500D02*
X81788000Y-85344000D01*
X81788000Y-85344000D02*
X81788000Y-86376000D01*
%TO.N,Net-(C7-Pad2)*%
X79883000Y-76073000D02*
X79502000Y-76454000D01*
X79464500Y-77740000D02*
X79502000Y-77702500D01*
X77216000Y-77740000D02*
X79464500Y-77740000D01*
X84758000Y-76073000D02*
X79883000Y-76073000D01*
X79502000Y-76454000D02*
X79502000Y-77702500D01*
D33*
%TO.N,Net-(D4-Pad1)*%
X110110000Y-84328000D02*
X106706000Y-84328000D01*
%TD*%
%TA.AperFunction,Conductor*%
%TO.N,G_IGBT*%
G36*
X120874057Y-49277500D02*
G01*
X120888858Y-49279805D01*
X120888861Y-49279805D01*
X120897730Y-49281186D01*
X120916411Y-49278743D01*
X120939342Y-49277852D01*
X121242557Y-49293743D01*
X121255665Y-49295120D01*
X121419139Y-49321012D01*
X121436258Y-49323723D01*
X121500411Y-49354135D01*
X121537938Y-49414404D01*
X121536924Y-49485393D01*
X121497691Y-49544565D01*
X121464354Y-49562461D01*
X121459671Y-49567865D01*
X121458000Y-49575548D01*
X121458000Y-51797885D01*
X121462475Y-51813124D01*
X121463865Y-51814329D01*
X121471548Y-51816000D01*
X122443885Y-51816000D01*
X122459124Y-51811525D01*
X122460329Y-51810135D01*
X122462000Y-51802452D01*
X122462000Y-50385666D01*
X122461807Y-50380739D01*
X122456386Y-50311860D01*
X122454439Y-50300533D01*
X122409599Y-50133187D01*
X122404898Y-50120941D01*
X122326622Y-49967318D01*
X122319470Y-49956304D01*
X122210966Y-49822311D01*
X122204204Y-49815549D01*
X122170178Y-49753237D01*
X122175243Y-49682422D01*
X122217790Y-49625586D01*
X122284310Y-49600775D01*
X122350502Y-49614187D01*
X122549120Y-49715388D01*
X122560536Y-49721979D01*
X122839334Y-49903033D01*
X122849996Y-49910779D01*
X123108344Y-50119984D01*
X123118145Y-50128810D01*
X123353190Y-50363855D01*
X123362015Y-50373655D01*
X123369711Y-50383158D01*
X123571221Y-50632004D01*
X123578967Y-50642666D01*
X123760018Y-50921459D01*
X123766612Y-50932880D01*
X123917531Y-51229076D01*
X123922895Y-51241124D01*
X124042021Y-51551456D01*
X124046097Y-51564000D01*
X124132135Y-51885098D01*
X124134877Y-51897998D01*
X124186879Y-52226329D01*
X124188257Y-52239446D01*
X124203764Y-52535330D01*
X124202436Y-52561312D01*
X124202195Y-52562856D01*
X124202195Y-52562860D01*
X124200814Y-52571730D01*
X124201978Y-52580632D01*
X124201978Y-52580635D01*
X124204936Y-52603251D01*
X124206000Y-52619589D01*
X124206000Y-59030000D01*
X124185998Y-59098121D01*
X124132342Y-59144614D01*
X124080000Y-59156000D01*
X122627484Y-59156000D01*
X122559363Y-59135998D01*
X122512870Y-59082342D01*
X122502766Y-59012068D01*
X122507891Y-58990333D01*
X122528137Y-58929293D01*
X122531005Y-58915914D01*
X122540672Y-58821562D01*
X122541000Y-58815146D01*
X122541000Y-58640115D01*
X122536525Y-58624876D01*
X122535135Y-58623671D01*
X122527452Y-58622000D01*
X114713116Y-58622000D01*
X114697877Y-58626475D01*
X114696672Y-58627865D01*
X114695001Y-58635548D01*
X114695001Y-58815095D01*
X114695338Y-58821614D01*
X114705257Y-58917206D01*
X114708150Y-58930603D01*
X114728007Y-58990125D01*
X114730591Y-59061074D01*
X114694407Y-59122158D01*
X114630942Y-59153982D01*
X114608483Y-59156000D01*
X114499484Y-59156000D01*
X114431363Y-59135998D01*
X114384870Y-59082342D01*
X114374766Y-59012068D01*
X114379891Y-58990333D01*
X114400137Y-58929293D01*
X114403005Y-58915914D01*
X114412672Y-58821562D01*
X114413000Y-58815146D01*
X114413000Y-58640115D01*
X114408525Y-58624876D01*
X114407135Y-58623671D01*
X114399452Y-58622000D01*
X107822000Y-58622000D01*
X107753879Y-58601998D01*
X107707386Y-58548342D01*
X107696000Y-58496000D01*
X107696000Y-58095885D01*
X108204000Y-58095885D01*
X108208475Y-58111124D01*
X108209865Y-58112329D01*
X108217548Y-58114000D01*
X110217885Y-58114000D01*
X110233124Y-58109525D01*
X110234329Y-58108135D01*
X110236000Y-58100452D01*
X110236000Y-58095885D01*
X110744000Y-58095885D01*
X110748475Y-58111124D01*
X110749865Y-58112329D01*
X110757548Y-58114000D01*
X112757885Y-58114000D01*
X112773124Y-58109525D01*
X112774329Y-58108135D01*
X112776000Y-58100452D01*
X112776000Y-58095885D01*
X113284000Y-58095885D01*
X113288475Y-58111124D01*
X113289865Y-58112329D01*
X113297548Y-58114000D01*
X114394884Y-58114000D01*
X114410123Y-58109525D01*
X114411328Y-58108135D01*
X114412999Y-58100452D01*
X114412999Y-58095885D01*
X114695000Y-58095885D01*
X114699475Y-58111124D01*
X114700865Y-58112329D01*
X114708548Y-58114000D01*
X115805885Y-58114000D01*
X115821124Y-58109525D01*
X115822329Y-58108135D01*
X115824000Y-58100452D01*
X115824000Y-58095885D01*
X116332000Y-58095885D01*
X116336475Y-58111124D01*
X116337865Y-58112329D01*
X116345548Y-58114000D01*
X118345885Y-58114000D01*
X118361124Y-58109525D01*
X118362329Y-58108135D01*
X118364000Y-58100452D01*
X118364000Y-58095885D01*
X118872000Y-58095885D01*
X118876475Y-58111124D01*
X118877865Y-58112329D01*
X118885548Y-58114000D01*
X120885885Y-58114000D01*
X120901124Y-58109525D01*
X120902329Y-58108135D01*
X120904000Y-58100452D01*
X120904000Y-58095885D01*
X121412000Y-58095885D01*
X121416475Y-58111124D01*
X121417865Y-58112329D01*
X121425548Y-58114000D01*
X122522884Y-58114000D01*
X122538123Y-58109525D01*
X122539328Y-58108135D01*
X122540999Y-58100452D01*
X122540999Y-57920905D01*
X122540662Y-57914386D01*
X122530743Y-57818794D01*
X122527851Y-57805400D01*
X122476412Y-57651216D01*
X122470239Y-57638038D01*
X122384937Y-57500193D01*
X122375901Y-57488792D01*
X122261171Y-57374261D01*
X122249760Y-57365249D01*
X122111757Y-57280184D01*
X122098576Y-57274037D01*
X121944290Y-57222862D01*
X121930914Y-57219995D01*
X121836562Y-57210328D01*
X121830145Y-57210000D01*
X121430115Y-57210000D01*
X121414876Y-57214475D01*
X121413671Y-57215865D01*
X121412000Y-57223548D01*
X121412000Y-58095885D01*
X120904000Y-58095885D01*
X120904000Y-57228116D01*
X120899525Y-57212877D01*
X120898135Y-57211672D01*
X120890452Y-57210001D01*
X120485905Y-57210001D01*
X120479386Y-57210338D01*
X120383794Y-57220257D01*
X120370400Y-57223149D01*
X120216216Y-57274588D01*
X120203038Y-57280761D01*
X120065193Y-57366063D01*
X120053792Y-57375099D01*
X119977208Y-57451817D01*
X119914926Y-57485896D01*
X119844106Y-57480893D01*
X119799017Y-57451972D01*
X119721171Y-57374261D01*
X119709760Y-57365249D01*
X119571757Y-57280184D01*
X119558576Y-57274037D01*
X119404290Y-57222862D01*
X119390914Y-57219995D01*
X119296562Y-57210328D01*
X119290145Y-57210000D01*
X118890115Y-57210000D01*
X118874876Y-57214475D01*
X118873671Y-57215865D01*
X118872000Y-57223548D01*
X118872000Y-58095885D01*
X118364000Y-58095885D01*
X118364000Y-57228116D01*
X118359525Y-57212877D01*
X118358135Y-57211672D01*
X118350452Y-57210001D01*
X117945905Y-57210001D01*
X117939386Y-57210338D01*
X117843794Y-57220257D01*
X117830400Y-57223149D01*
X117676216Y-57274588D01*
X117663038Y-57280761D01*
X117525193Y-57366063D01*
X117513792Y-57375099D01*
X117437208Y-57451817D01*
X117374926Y-57485896D01*
X117304106Y-57480893D01*
X117259017Y-57451972D01*
X117181171Y-57374261D01*
X117169760Y-57365249D01*
X117031757Y-57280184D01*
X117018576Y-57274037D01*
X116864290Y-57222862D01*
X116850914Y-57219995D01*
X116756562Y-57210328D01*
X116750145Y-57210000D01*
X116350115Y-57210000D01*
X116334876Y-57214475D01*
X116333671Y-57215865D01*
X116332000Y-57223548D01*
X116332000Y-58095885D01*
X115824000Y-58095885D01*
X115824000Y-57228116D01*
X115819525Y-57212877D01*
X115818135Y-57211672D01*
X115810452Y-57210001D01*
X115405905Y-57210001D01*
X115399386Y-57210338D01*
X115303794Y-57220257D01*
X115290400Y-57223149D01*
X115136216Y-57274588D01*
X115123038Y-57280761D01*
X114985193Y-57366063D01*
X114973792Y-57375099D01*
X114859261Y-57489829D01*
X114850249Y-57501240D01*
X114765184Y-57639243D01*
X114759037Y-57652424D01*
X114707862Y-57806710D01*
X114704995Y-57820086D01*
X114695328Y-57914438D01*
X114695000Y-57920855D01*
X114695000Y-58095885D01*
X114412999Y-58095885D01*
X114412999Y-57920905D01*
X114412662Y-57914386D01*
X114402743Y-57818794D01*
X114399851Y-57805400D01*
X114348412Y-57651216D01*
X114342239Y-57638038D01*
X114256937Y-57500193D01*
X114247901Y-57488792D01*
X114133171Y-57374261D01*
X114121760Y-57365249D01*
X113983757Y-57280184D01*
X113970576Y-57274037D01*
X113816290Y-57222862D01*
X113802914Y-57219995D01*
X113708562Y-57210328D01*
X113702145Y-57210000D01*
X113302115Y-57210000D01*
X113286876Y-57214475D01*
X113285671Y-57215865D01*
X113284000Y-57223548D01*
X113284000Y-58095885D01*
X112776000Y-58095885D01*
X112776000Y-57228116D01*
X112771525Y-57212877D01*
X112770135Y-57211672D01*
X112762452Y-57210001D01*
X112357905Y-57210001D01*
X112351386Y-57210338D01*
X112255794Y-57220257D01*
X112242400Y-57223149D01*
X112088216Y-57274588D01*
X112075038Y-57280761D01*
X111937193Y-57366063D01*
X111925792Y-57375099D01*
X111849208Y-57451817D01*
X111786926Y-57485896D01*
X111716106Y-57480893D01*
X111671017Y-57451972D01*
X111593171Y-57374261D01*
X111581760Y-57365249D01*
X111443757Y-57280184D01*
X111430576Y-57274037D01*
X111276290Y-57222862D01*
X111262914Y-57219995D01*
X111168562Y-57210328D01*
X111162145Y-57210000D01*
X110762115Y-57210000D01*
X110746876Y-57214475D01*
X110745671Y-57215865D01*
X110744000Y-57223548D01*
X110744000Y-58095885D01*
X110236000Y-58095885D01*
X110236000Y-57228116D01*
X110231525Y-57212877D01*
X110230135Y-57211672D01*
X110222452Y-57210001D01*
X109817905Y-57210001D01*
X109811386Y-57210338D01*
X109715794Y-57220257D01*
X109702400Y-57223149D01*
X109548216Y-57274588D01*
X109535038Y-57280761D01*
X109397193Y-57366063D01*
X109385792Y-57375099D01*
X109309208Y-57451817D01*
X109246926Y-57485896D01*
X109176106Y-57480893D01*
X109131017Y-57451972D01*
X109053171Y-57374261D01*
X109041760Y-57365249D01*
X108903757Y-57280184D01*
X108890576Y-57274037D01*
X108736290Y-57222862D01*
X108722914Y-57219995D01*
X108628562Y-57210328D01*
X108622145Y-57210000D01*
X108222115Y-57210000D01*
X108206876Y-57214475D01*
X108205671Y-57215865D01*
X108204000Y-57223548D01*
X108204000Y-58095885D01*
X107696000Y-58095885D01*
X107696000Y-57228116D01*
X107691525Y-57212877D01*
X107690135Y-57211672D01*
X107682452Y-57210001D01*
X107277905Y-57210001D01*
X107271386Y-57210338D01*
X107175794Y-57220257D01*
X107162400Y-57223149D01*
X107008216Y-57274588D01*
X106995042Y-57280760D01*
X106872304Y-57356713D01*
X106803852Y-57375551D01*
X106736082Y-57354390D01*
X106690511Y-57299950D01*
X106680000Y-57249569D01*
X106680000Y-55980000D01*
X106700002Y-55911879D01*
X106753658Y-55865386D01*
X106806000Y-55854000D01*
X118872000Y-55854000D01*
X118872000Y-53754335D01*
X119946000Y-53754335D01*
X119946193Y-53759261D01*
X119951614Y-53828140D01*
X119953561Y-53839467D01*
X119998401Y-54006813D01*
X120003102Y-54019059D01*
X120081378Y-54172682D01*
X120088530Y-54183696D01*
X120197034Y-54317689D01*
X120206311Y-54326966D01*
X120340304Y-54435470D01*
X120351318Y-54442622D01*
X120504941Y-54520898D01*
X120517187Y-54525599D01*
X120684533Y-54570439D01*
X120695860Y-54572386D01*
X120764739Y-54577807D01*
X120769665Y-54578000D01*
X120931885Y-54578000D01*
X120947124Y-54573525D01*
X120948329Y-54572135D01*
X120950000Y-54564452D01*
X120950000Y-54559885D01*
X121458000Y-54559885D01*
X121462475Y-54575124D01*
X121463865Y-54576329D01*
X121471548Y-54578000D01*
X121638335Y-54578000D01*
X121643261Y-54577807D01*
X121712140Y-54572386D01*
X121723467Y-54570439D01*
X121890813Y-54525599D01*
X121903059Y-54520898D01*
X122056682Y-54442622D01*
X122067696Y-54435470D01*
X122201689Y-54326966D01*
X122210966Y-54317689D01*
X122319470Y-54183696D01*
X122326622Y-54172682D01*
X122404898Y-54019059D01*
X122409599Y-54006813D01*
X122454439Y-53839467D01*
X122456386Y-53828140D01*
X122461807Y-53759261D01*
X122462000Y-53754335D01*
X122462000Y-52342115D01*
X122457525Y-52326876D01*
X122456135Y-52325671D01*
X122448452Y-52324000D01*
X121476115Y-52324000D01*
X121460876Y-52328475D01*
X121459671Y-52329865D01*
X121458000Y-52337548D01*
X121458000Y-54559885D01*
X120950000Y-54559885D01*
X120950000Y-52342115D01*
X120945525Y-52326876D01*
X120944135Y-52325671D01*
X120936452Y-52324000D01*
X119964115Y-52324000D01*
X119948876Y-52328475D01*
X119947671Y-52329865D01*
X119946000Y-52337548D01*
X119946000Y-53754335D01*
X118872000Y-53754335D01*
X118872000Y-51797885D01*
X119946000Y-51797885D01*
X119950475Y-51813124D01*
X119951865Y-51814329D01*
X119959548Y-51816000D01*
X120931885Y-51816000D01*
X120947124Y-51811525D01*
X120948329Y-51810135D01*
X120950000Y-51802452D01*
X120950000Y-49580115D01*
X120945525Y-49564876D01*
X120944135Y-49563671D01*
X120936452Y-49562000D01*
X120769666Y-49562000D01*
X120764739Y-49562193D01*
X120695860Y-49567614D01*
X120684533Y-49569561D01*
X120517187Y-49614401D01*
X120504941Y-49619102D01*
X120351318Y-49697378D01*
X120340304Y-49704530D01*
X120206311Y-49813034D01*
X120197034Y-49822311D01*
X120088530Y-49956304D01*
X120081378Y-49967318D01*
X120003102Y-50120941D01*
X119998401Y-50133187D01*
X119953561Y-50300533D01*
X119951614Y-50311860D01*
X119946193Y-50380739D01*
X119946000Y-50385666D01*
X119946000Y-51797885D01*
X118872000Y-51797885D01*
X118872000Y-49402000D01*
X118892002Y-49333879D01*
X118945658Y-49287386D01*
X118998000Y-49276000D01*
X120854672Y-49276000D01*
X120874057Y-49277500D01*
G37*
%TD.AperFunction*%
%TD*%
M02*
