%TF.GenerationSoftware,KiCad,Pcbnew,(6.0.1)*%
%TF.CreationDate,2022-08-22T15:24:11+03:00*%
%TF.ProjectId,Driver_Board,44726976-6572-45f4-926f-6172642e6b69,rev?*%
%TF.SameCoordinates,Original*%
%TF.FileFunction,Legend,Top*%
%TF.FilePolarity,Positive*%
%FSLAX46Y46*%
G04 Gerber Fmt 4.6, Leading zero omitted, Abs format (unit mm)*
G04 Created by KiCad (PCBNEW (6.0.1)) date 2022-08-22 15:24:11*
%MOMM*%
%LPD*%
G01*
G04 APERTURE LIST*
%ADD10C,0.150000*%
%ADD11C,0.120000*%
G04 APERTURE END LIST*
D10*
X78486000Y-81788000D02*
X78486000Y-81026000D01*
X89154000Y-81026000D02*
X89154000Y-81534000D01*
X78232000Y-81026000D02*
X69342000Y-81026000D01*
X69342000Y-81026000D02*
X69342000Y-81534000D01*
X78486000Y-81026000D02*
X89154000Y-81026000D01*
X114085714Y-51998571D02*
X114419047Y-51998571D01*
X114561904Y-52522380D02*
X114085714Y-52522380D01*
X114085714Y-51522380D01*
X114561904Y-51522380D01*
X111339523Y-72493142D02*
X111291904Y-72540761D01*
X111149047Y-72588380D01*
X111053809Y-72588380D01*
X110910952Y-72540761D01*
X110815714Y-72445523D01*
X110768095Y-72350285D01*
X110720476Y-72159809D01*
X110720476Y-72016952D01*
X110768095Y-71826476D01*
X110815714Y-71731238D01*
X110910952Y-71636000D01*
X111053809Y-71588380D01*
X111149047Y-71588380D01*
X111291904Y-71636000D01*
X111339523Y-71683619D01*
X111530000Y-72683619D02*
X112291904Y-72683619D01*
X112530000Y-72588380D02*
X112530000Y-71588380D01*
X113530000Y-71636000D02*
X113434761Y-71588380D01*
X113291904Y-71588380D01*
X113149047Y-71636000D01*
X113053809Y-71731238D01*
X113006190Y-71826476D01*
X112958571Y-72016952D01*
X112958571Y-72159809D01*
X113006190Y-72350285D01*
X113053809Y-72445523D01*
X113149047Y-72540761D01*
X113291904Y-72588380D01*
X113387142Y-72588380D01*
X113530000Y-72540761D01*
X113577619Y-72493142D01*
X113577619Y-72159809D01*
X113387142Y-72159809D01*
X114339523Y-72064571D02*
X114482380Y-72112190D01*
X114530000Y-72159809D01*
X114577619Y-72255047D01*
X114577619Y-72397904D01*
X114530000Y-72493142D01*
X114482380Y-72540761D01*
X114387142Y-72588380D01*
X114006190Y-72588380D01*
X114006190Y-71588380D01*
X114339523Y-71588380D01*
X114434761Y-71636000D01*
X114482380Y-71683619D01*
X114530000Y-71778857D01*
X114530000Y-71874095D01*
X114482380Y-71969333D01*
X114434761Y-72016952D01*
X114339523Y-72064571D01*
X114006190Y-72064571D01*
X114863333Y-71588380D02*
X115434761Y-71588380D01*
X115149047Y-72588380D02*
X115149047Y-71588380D01*
X123197904Y-51570000D02*
X123102666Y-51522380D01*
X122959809Y-51522380D01*
X122816952Y-51570000D01*
X122721714Y-51665238D01*
X122674095Y-51760476D01*
X122626476Y-51950952D01*
X122626476Y-52093809D01*
X122674095Y-52284285D01*
X122721714Y-52379523D01*
X122816952Y-52474761D01*
X122959809Y-52522380D01*
X123055047Y-52522380D01*
X123197904Y-52474761D01*
X123245523Y-52427142D01*
X123245523Y-52093809D01*
X123055047Y-52093809D01*
%TO.C,J3*%
X118538666Y-49490380D02*
X118538666Y-50204666D01*
X118491047Y-50347523D01*
X118395809Y-50442761D01*
X118252952Y-50490380D01*
X118157714Y-50490380D01*
X118919619Y-49490380D02*
X119538666Y-49490380D01*
X119205333Y-49871333D01*
X119348190Y-49871333D01*
X119443428Y-49918952D01*
X119491047Y-49966571D01*
X119538666Y-50061809D01*
X119538666Y-50299904D01*
X119491047Y-50395142D01*
X119443428Y-50442761D01*
X119348190Y-50490380D01*
X119062476Y-50490380D01*
X118967238Y-50442761D01*
X118919619Y-50395142D01*
%TO.C,C3*%
X97369333Y-82907142D02*
X97321714Y-82954761D01*
X97178857Y-83002380D01*
X97083619Y-83002380D01*
X96940761Y-82954761D01*
X96845523Y-82859523D01*
X96797904Y-82764285D01*
X96750285Y-82573809D01*
X96750285Y-82430952D01*
X96797904Y-82240476D01*
X96845523Y-82145238D01*
X96940761Y-82050000D01*
X97083619Y-82002380D01*
X97178857Y-82002380D01*
X97321714Y-82050000D01*
X97369333Y-82097619D01*
X97702666Y-82002380D02*
X98321714Y-82002380D01*
X97988380Y-82383333D01*
X98131238Y-82383333D01*
X98226476Y-82430952D01*
X98274095Y-82478571D01*
X98321714Y-82573809D01*
X98321714Y-82811904D01*
X98274095Y-82907142D01*
X98226476Y-82954761D01*
X98131238Y-83002380D01*
X97845523Y-83002380D01*
X97750285Y-82954761D01*
X97702666Y-82907142D01*
%TO.C,R8*%
X120991333Y-57094380D02*
X120658000Y-56618190D01*
X120419904Y-57094380D02*
X120419904Y-56094380D01*
X120800857Y-56094380D01*
X120896095Y-56142000D01*
X120943714Y-56189619D01*
X120991333Y-56284857D01*
X120991333Y-56427714D01*
X120943714Y-56522952D01*
X120896095Y-56570571D01*
X120800857Y-56618190D01*
X120419904Y-56618190D01*
X121562761Y-56522952D02*
X121467523Y-56475333D01*
X121419904Y-56427714D01*
X121372285Y-56332476D01*
X121372285Y-56284857D01*
X121419904Y-56189619D01*
X121467523Y-56142000D01*
X121562761Y-56094380D01*
X121753238Y-56094380D01*
X121848476Y-56142000D01*
X121896095Y-56189619D01*
X121943714Y-56284857D01*
X121943714Y-56332476D01*
X121896095Y-56427714D01*
X121848476Y-56475333D01*
X121753238Y-56522952D01*
X121562761Y-56522952D01*
X121467523Y-56570571D01*
X121419904Y-56618190D01*
X121372285Y-56713428D01*
X121372285Y-56903904D01*
X121419904Y-56999142D01*
X121467523Y-57046761D01*
X121562761Y-57094380D01*
X121753238Y-57094380D01*
X121848476Y-57046761D01*
X121896095Y-56999142D01*
X121943714Y-56903904D01*
X121943714Y-56713428D01*
X121896095Y-56618190D01*
X121848476Y-56570571D01*
X121753238Y-56522952D01*
%TO.C,R13*%
X78859142Y-90622380D02*
X78525809Y-90146190D01*
X78287714Y-90622380D02*
X78287714Y-89622380D01*
X78668666Y-89622380D01*
X78763904Y-89670000D01*
X78811523Y-89717619D01*
X78859142Y-89812857D01*
X78859142Y-89955714D01*
X78811523Y-90050952D01*
X78763904Y-90098571D01*
X78668666Y-90146190D01*
X78287714Y-90146190D01*
X79811523Y-90622380D02*
X79240095Y-90622380D01*
X79525809Y-90622380D02*
X79525809Y-89622380D01*
X79430571Y-89765238D01*
X79335333Y-89860476D01*
X79240095Y-89908095D01*
X80144857Y-89622380D02*
X80763904Y-89622380D01*
X80430571Y-90003333D01*
X80573428Y-90003333D01*
X80668666Y-90050952D01*
X80716285Y-90098571D01*
X80763904Y-90193809D01*
X80763904Y-90431904D01*
X80716285Y-90527142D01*
X80668666Y-90574761D01*
X80573428Y-90622380D01*
X80287714Y-90622380D01*
X80192476Y-90574761D01*
X80144857Y-90527142D01*
%TO.C,R7*%
X112863333Y-57094380D02*
X112530000Y-56618190D01*
X112291904Y-57094380D02*
X112291904Y-56094380D01*
X112672857Y-56094380D01*
X112768095Y-56142000D01*
X112815714Y-56189619D01*
X112863333Y-56284857D01*
X112863333Y-56427714D01*
X112815714Y-56522952D01*
X112768095Y-56570571D01*
X112672857Y-56618190D01*
X112291904Y-56618190D01*
X113196666Y-56094380D02*
X113863333Y-56094380D01*
X113434761Y-57094380D01*
%TO.C,R14*%
X86987142Y-82240380D02*
X86653809Y-81764190D01*
X86415714Y-82240380D02*
X86415714Y-81240380D01*
X86796666Y-81240380D01*
X86891904Y-81288000D01*
X86939523Y-81335619D01*
X86987142Y-81430857D01*
X86987142Y-81573714D01*
X86939523Y-81668952D01*
X86891904Y-81716571D01*
X86796666Y-81764190D01*
X86415714Y-81764190D01*
X87939523Y-82240380D02*
X87368095Y-82240380D01*
X87653809Y-82240380D02*
X87653809Y-81240380D01*
X87558571Y-81383238D01*
X87463333Y-81478476D01*
X87368095Y-81526095D01*
X88796666Y-81573714D02*
X88796666Y-82240380D01*
X88558571Y-81192761D02*
X88320476Y-81907047D01*
X88939523Y-81907047D01*
%TO.C,J1*%
X69262666Y-77176380D02*
X69262666Y-77890666D01*
X69215047Y-78033523D01*
X69119809Y-78128761D01*
X68976952Y-78176380D01*
X68881714Y-78176380D01*
X70262666Y-78176380D02*
X69691238Y-78176380D01*
X69976952Y-78176380D02*
X69976952Y-77176380D01*
X69881714Y-77319238D01*
X69786476Y-77414476D01*
X69691238Y-77462095D01*
%TO.C,C6*%
X74001333Y-63095142D02*
X73953714Y-63142761D01*
X73810857Y-63190380D01*
X73715619Y-63190380D01*
X73572761Y-63142761D01*
X73477523Y-63047523D01*
X73429904Y-62952285D01*
X73382285Y-62761809D01*
X73382285Y-62618952D01*
X73429904Y-62428476D01*
X73477523Y-62333238D01*
X73572761Y-62238000D01*
X73715619Y-62190380D01*
X73810857Y-62190380D01*
X73953714Y-62238000D01*
X74001333Y-62285619D01*
X74858476Y-62190380D02*
X74668000Y-62190380D01*
X74572761Y-62238000D01*
X74525142Y-62285619D01*
X74429904Y-62428476D01*
X74382285Y-62618952D01*
X74382285Y-62999904D01*
X74429904Y-63095142D01*
X74477523Y-63142761D01*
X74572761Y-63190380D01*
X74763238Y-63190380D01*
X74858476Y-63142761D01*
X74906095Y-63095142D01*
X74953714Y-62999904D01*
X74953714Y-62761809D01*
X74906095Y-62666571D01*
X74858476Y-62618952D01*
X74763238Y-62571333D01*
X74572761Y-62571333D01*
X74477523Y-62618952D01*
X74429904Y-62666571D01*
X74382285Y-62761809D01*
%TO.C,J4*%
X118284666Y-67524380D02*
X118284666Y-68238666D01*
X118237047Y-68381523D01*
X118141809Y-68476761D01*
X117998952Y-68524380D01*
X117903714Y-68524380D01*
X119189428Y-67857714D02*
X119189428Y-68524380D01*
X118951333Y-67476761D02*
X118713238Y-68191047D01*
X119332285Y-68191047D01*
%TO.C,C7*%
X79335333Y-76303142D02*
X79287714Y-76350761D01*
X79144857Y-76398380D01*
X79049619Y-76398380D01*
X78906761Y-76350761D01*
X78811523Y-76255523D01*
X78763904Y-76160285D01*
X78716285Y-75969809D01*
X78716285Y-75826952D01*
X78763904Y-75636476D01*
X78811523Y-75541238D01*
X78906761Y-75446000D01*
X79049619Y-75398380D01*
X79144857Y-75398380D01*
X79287714Y-75446000D01*
X79335333Y-75493619D01*
X79668666Y-75398380D02*
X80335333Y-75398380D01*
X79906761Y-76398380D01*
%TO.C,D7*%
X75969904Y-90622380D02*
X75969904Y-89622380D01*
X76208000Y-89622380D01*
X76350857Y-89670000D01*
X76446095Y-89765238D01*
X76493714Y-89860476D01*
X76541333Y-90050952D01*
X76541333Y-90193809D01*
X76493714Y-90384285D01*
X76446095Y-90479523D01*
X76350857Y-90574761D01*
X76208000Y-90622380D01*
X75969904Y-90622380D01*
X76874666Y-89622380D02*
X77541333Y-89622380D01*
X77112761Y-90622380D01*
%TO.C,R5*%
X115911333Y-57094380D02*
X115578000Y-56618190D01*
X115339904Y-57094380D02*
X115339904Y-56094380D01*
X115720857Y-56094380D01*
X115816095Y-56142000D01*
X115863714Y-56189619D01*
X115911333Y-56284857D01*
X115911333Y-56427714D01*
X115863714Y-56522952D01*
X115816095Y-56570571D01*
X115720857Y-56618190D01*
X115339904Y-56618190D01*
X116816095Y-56094380D02*
X116339904Y-56094380D01*
X116292285Y-56570571D01*
X116339904Y-56522952D01*
X116435142Y-56475333D01*
X116673238Y-56475333D01*
X116768476Y-56522952D01*
X116816095Y-56570571D01*
X116863714Y-56665809D01*
X116863714Y-56903904D01*
X116816095Y-56999142D01*
X116768476Y-57046761D01*
X116673238Y-57094380D01*
X116435142Y-57094380D01*
X116339904Y-57046761D01*
X116292285Y-56999142D01*
%TO.C,D6*%
X117879904Y-87066380D02*
X117879904Y-86066380D01*
X118118000Y-86066380D01*
X118260857Y-86114000D01*
X118356095Y-86209238D01*
X118403714Y-86304476D01*
X118451333Y-86494952D01*
X118451333Y-86637809D01*
X118403714Y-86828285D01*
X118356095Y-86923523D01*
X118260857Y-87018761D01*
X118118000Y-87066380D01*
X117879904Y-87066380D01*
X119308476Y-86066380D02*
X119118000Y-86066380D01*
X119022761Y-86114000D01*
X118975142Y-86161619D01*
X118879904Y-86304476D01*
X118832285Y-86494952D01*
X118832285Y-86875904D01*
X118879904Y-86971142D01*
X118927523Y-87018761D01*
X119022761Y-87066380D01*
X119213238Y-87066380D01*
X119308476Y-87018761D01*
X119356095Y-86971142D01*
X119403714Y-86875904D01*
X119403714Y-86637809D01*
X119356095Y-86542571D01*
X119308476Y-86494952D01*
X119213238Y-86447333D01*
X119022761Y-86447333D01*
X118927523Y-86494952D01*
X118879904Y-86542571D01*
X118832285Y-86637809D01*
%TO.C,D3*%
X99591904Y-83002380D02*
X99591904Y-82002380D01*
X99830000Y-82002380D01*
X99972857Y-82050000D01*
X100068095Y-82145238D01*
X100115714Y-82240476D01*
X100163333Y-82430952D01*
X100163333Y-82573809D01*
X100115714Y-82764285D01*
X100068095Y-82859523D01*
X99972857Y-82954761D01*
X99830000Y-83002380D01*
X99591904Y-83002380D01*
X100496666Y-82002380D02*
X101115714Y-82002380D01*
X100782380Y-82383333D01*
X100925238Y-82383333D01*
X101020476Y-82430952D01*
X101068095Y-82478571D01*
X101115714Y-82573809D01*
X101115714Y-82811904D01*
X101068095Y-82907142D01*
X101020476Y-82954761D01*
X100925238Y-83002380D01*
X100639523Y-83002380D01*
X100544285Y-82954761D01*
X100496666Y-82907142D01*
%TO.C,R2*%
X82383333Y-90622380D02*
X82050000Y-90146190D01*
X81811904Y-90622380D02*
X81811904Y-89622380D01*
X82192857Y-89622380D01*
X82288095Y-89670000D01*
X82335714Y-89717619D01*
X82383333Y-89812857D01*
X82383333Y-89955714D01*
X82335714Y-90050952D01*
X82288095Y-90098571D01*
X82192857Y-90146190D01*
X81811904Y-90146190D01*
X82764285Y-89717619D02*
X82811904Y-89670000D01*
X82907142Y-89622380D01*
X83145238Y-89622380D01*
X83240476Y-89670000D01*
X83288095Y-89717619D01*
X83335714Y-89812857D01*
X83335714Y-89908095D01*
X83288095Y-90050952D01*
X82716666Y-90622380D01*
X83335714Y-90622380D01*
%TO.C,C1*%
X81621333Y-76303142D02*
X81573714Y-76350761D01*
X81430857Y-76398380D01*
X81335619Y-76398380D01*
X81192761Y-76350761D01*
X81097523Y-76255523D01*
X81049904Y-76160285D01*
X81002285Y-75969809D01*
X81002285Y-75826952D01*
X81049904Y-75636476D01*
X81097523Y-75541238D01*
X81192761Y-75446000D01*
X81335619Y-75398380D01*
X81430857Y-75398380D01*
X81573714Y-75446000D01*
X81621333Y-75493619D01*
X82573714Y-76398380D02*
X82002285Y-76398380D01*
X82288000Y-76398380D02*
X82288000Y-75398380D01*
X82192761Y-75541238D01*
X82097523Y-75636476D01*
X82002285Y-75684095D01*
%TO.C,C4*%
X74255333Y-90527142D02*
X74207714Y-90574761D01*
X74064857Y-90622380D01*
X73969619Y-90622380D01*
X73826761Y-90574761D01*
X73731523Y-90479523D01*
X73683904Y-90384285D01*
X73636285Y-90193809D01*
X73636285Y-90050952D01*
X73683904Y-89860476D01*
X73731523Y-89765238D01*
X73826761Y-89670000D01*
X73969619Y-89622380D01*
X74064857Y-89622380D01*
X74207714Y-89670000D01*
X74255333Y-89717619D01*
X75112476Y-89955714D02*
X75112476Y-90622380D01*
X74874380Y-89574761D02*
X74636285Y-90289047D01*
X75255333Y-90289047D01*
%TO.C,R10*%
X79113142Y-69286380D02*
X78779809Y-68810190D01*
X78541714Y-69286380D02*
X78541714Y-68286380D01*
X78922666Y-68286380D01*
X79017904Y-68334000D01*
X79065523Y-68381619D01*
X79113142Y-68476857D01*
X79113142Y-68619714D01*
X79065523Y-68714952D01*
X79017904Y-68762571D01*
X78922666Y-68810190D01*
X78541714Y-68810190D01*
X80065523Y-69286380D02*
X79494095Y-69286380D01*
X79779809Y-69286380D02*
X79779809Y-68286380D01*
X79684571Y-68429238D01*
X79589333Y-68524476D01*
X79494095Y-68572095D01*
X80684571Y-68286380D02*
X80779809Y-68286380D01*
X80875047Y-68334000D01*
X80922666Y-68381619D01*
X80970285Y-68476857D01*
X81017904Y-68667333D01*
X81017904Y-68905428D01*
X80970285Y-69095904D01*
X80922666Y-69191142D01*
X80875047Y-69238761D01*
X80779809Y-69286380D01*
X80684571Y-69286380D01*
X80589333Y-69238761D01*
X80541714Y-69191142D01*
X80494095Y-69095904D01*
X80446476Y-68905428D01*
X80446476Y-68667333D01*
X80494095Y-68476857D01*
X80541714Y-68381619D01*
X80589333Y-68334000D01*
X80684571Y-68286380D01*
%TO.C,C5*%
X70191333Y-82145142D02*
X70143714Y-82192761D01*
X70000857Y-82240380D01*
X69905619Y-82240380D01*
X69762761Y-82192761D01*
X69667523Y-82097523D01*
X69619904Y-82002285D01*
X69572285Y-81811809D01*
X69572285Y-81668952D01*
X69619904Y-81478476D01*
X69667523Y-81383238D01*
X69762761Y-81288000D01*
X69905619Y-81240380D01*
X70000857Y-81240380D01*
X70143714Y-81288000D01*
X70191333Y-81335619D01*
X71096095Y-81240380D02*
X70619904Y-81240380D01*
X70572285Y-81716571D01*
X70619904Y-81668952D01*
X70715142Y-81621333D01*
X70953238Y-81621333D01*
X71048476Y-81668952D01*
X71096095Y-81716571D01*
X71143714Y-81811809D01*
X71143714Y-82049904D01*
X71096095Y-82145142D01*
X71048476Y-82192761D01*
X70953238Y-82240380D01*
X70715142Y-82240380D01*
X70619904Y-82192761D01*
X70572285Y-82145142D01*
%TO.C,R4*%
X110323333Y-57094380D02*
X109990000Y-56618190D01*
X109751904Y-57094380D02*
X109751904Y-56094380D01*
X110132857Y-56094380D01*
X110228095Y-56142000D01*
X110275714Y-56189619D01*
X110323333Y-56284857D01*
X110323333Y-56427714D01*
X110275714Y-56522952D01*
X110228095Y-56570571D01*
X110132857Y-56618190D01*
X109751904Y-56618190D01*
X111180476Y-56427714D02*
X111180476Y-57094380D01*
X110942380Y-56046761D02*
X110704285Y-56761047D01*
X111323333Y-56761047D01*
%TO.C,U1*%
X80650595Y-56296380D02*
X80650595Y-57105904D01*
X80698214Y-57201142D01*
X80745833Y-57248761D01*
X80841071Y-57296380D01*
X81031547Y-57296380D01*
X81126785Y-57248761D01*
X81174404Y-57201142D01*
X81222023Y-57105904D01*
X81222023Y-56296380D01*
X82222023Y-57296380D02*
X81650595Y-57296380D01*
X81936309Y-57296380D02*
X81936309Y-56296380D01*
X81841071Y-56439238D01*
X81745833Y-56534476D01*
X81650595Y-56582095D01*
%TO.C,D1*%
X91209904Y-80970380D02*
X91209904Y-79970380D01*
X91448000Y-79970380D01*
X91590857Y-80018000D01*
X91686095Y-80113238D01*
X91733714Y-80208476D01*
X91781333Y-80398952D01*
X91781333Y-80541809D01*
X91733714Y-80732285D01*
X91686095Y-80827523D01*
X91590857Y-80922761D01*
X91448000Y-80970380D01*
X91209904Y-80970380D01*
X92733714Y-80970380D02*
X92162285Y-80970380D01*
X92448000Y-80970380D02*
X92448000Y-79970380D01*
X92352761Y-80113238D01*
X92257523Y-80208476D01*
X92162285Y-80256095D01*
%TO.C,D4*%
X111021904Y-82780380D02*
X111021904Y-81780380D01*
X111260000Y-81780380D01*
X111402857Y-81828000D01*
X111498095Y-81923238D01*
X111545714Y-82018476D01*
X111593333Y-82208952D01*
X111593333Y-82351809D01*
X111545714Y-82542285D01*
X111498095Y-82637523D01*
X111402857Y-82732761D01*
X111260000Y-82780380D01*
X111021904Y-82780380D01*
X112450476Y-82113714D02*
X112450476Y-82780380D01*
X112212380Y-81732761D02*
X111974285Y-82447047D01*
X112593333Y-82447047D01*
%TO.C,R9*%
X118451333Y-57094380D02*
X118118000Y-56618190D01*
X117879904Y-57094380D02*
X117879904Y-56094380D01*
X118260857Y-56094380D01*
X118356095Y-56142000D01*
X118403714Y-56189619D01*
X118451333Y-56284857D01*
X118451333Y-56427714D01*
X118403714Y-56522952D01*
X118356095Y-56570571D01*
X118260857Y-56618190D01*
X117879904Y-56618190D01*
X118927523Y-57094380D02*
X119118000Y-57094380D01*
X119213238Y-57046761D01*
X119260857Y-56999142D01*
X119356095Y-56856285D01*
X119403714Y-56665809D01*
X119403714Y-56284857D01*
X119356095Y-56189619D01*
X119308476Y-56142000D01*
X119213238Y-56094380D01*
X119022761Y-56094380D01*
X118927523Y-56142000D01*
X118879904Y-56189619D01*
X118832285Y-56284857D01*
X118832285Y-56522952D01*
X118879904Y-56618190D01*
X118927523Y-56665809D01*
X119022761Y-56713428D01*
X119213238Y-56713428D01*
X119308476Y-56665809D01*
X119356095Y-56618190D01*
X119403714Y-56522952D01*
%TO.C,R3*%
X104989333Y-82960380D02*
X104656000Y-82484190D01*
X104417904Y-82960380D02*
X104417904Y-81960380D01*
X104798857Y-81960380D01*
X104894095Y-82008000D01*
X104941714Y-82055619D01*
X104989333Y-82150857D01*
X104989333Y-82293714D01*
X104941714Y-82388952D01*
X104894095Y-82436571D01*
X104798857Y-82484190D01*
X104417904Y-82484190D01*
X105322666Y-81960380D02*
X105941714Y-81960380D01*
X105608380Y-82341333D01*
X105751238Y-82341333D01*
X105846476Y-82388952D01*
X105894095Y-82436571D01*
X105941714Y-82531809D01*
X105941714Y-82769904D01*
X105894095Y-82865142D01*
X105846476Y-82912761D01*
X105751238Y-82960380D01*
X105465523Y-82960380D01*
X105370285Y-82912761D01*
X105322666Y-82865142D01*
%TO.C,R15*%
X93845142Y-83002380D02*
X93511809Y-82526190D01*
X93273714Y-83002380D02*
X93273714Y-82002380D01*
X93654666Y-82002380D01*
X93749904Y-82050000D01*
X93797523Y-82097619D01*
X93845142Y-82192857D01*
X93845142Y-82335714D01*
X93797523Y-82430952D01*
X93749904Y-82478571D01*
X93654666Y-82526190D01*
X93273714Y-82526190D01*
X94797523Y-83002380D02*
X94226095Y-83002380D01*
X94511809Y-83002380D02*
X94511809Y-82002380D01*
X94416571Y-82145238D01*
X94321333Y-82240476D01*
X94226095Y-82288095D01*
X95702285Y-82002380D02*
X95226095Y-82002380D01*
X95178476Y-82478571D01*
X95226095Y-82430952D01*
X95321333Y-82383333D01*
X95559428Y-82383333D01*
X95654666Y-82430952D01*
X95702285Y-82478571D01*
X95749904Y-82573809D01*
X95749904Y-82811904D01*
X95702285Y-82907142D01*
X95654666Y-82954761D01*
X95559428Y-83002380D01*
X95321333Y-83002380D01*
X95226095Y-82954761D01*
X95178476Y-82907142D01*
%TO.C,D8*%
X71905904Y-82240380D02*
X71905904Y-81240380D01*
X72144000Y-81240380D01*
X72286857Y-81288000D01*
X72382095Y-81383238D01*
X72429714Y-81478476D01*
X72477333Y-81668952D01*
X72477333Y-81811809D01*
X72429714Y-82002285D01*
X72382095Y-82097523D01*
X72286857Y-82192761D01*
X72144000Y-82240380D01*
X71905904Y-82240380D01*
X73048761Y-81668952D02*
X72953523Y-81621333D01*
X72905904Y-81573714D01*
X72858285Y-81478476D01*
X72858285Y-81430857D01*
X72905904Y-81335619D01*
X72953523Y-81288000D01*
X73048761Y-81240380D01*
X73239238Y-81240380D01*
X73334476Y-81288000D01*
X73382095Y-81335619D01*
X73429714Y-81430857D01*
X73429714Y-81478476D01*
X73382095Y-81573714D01*
X73334476Y-81621333D01*
X73239238Y-81668952D01*
X73048761Y-81668952D01*
X72953523Y-81716571D01*
X72905904Y-81764190D01*
X72858285Y-81859428D01*
X72858285Y-82049904D01*
X72905904Y-82145142D01*
X72953523Y-82192761D01*
X73048761Y-82240380D01*
X73239238Y-82240380D01*
X73334476Y-82192761D01*
X73382095Y-82145142D01*
X73429714Y-82049904D01*
X73429714Y-81859428D01*
X73382095Y-81764190D01*
X73334476Y-81716571D01*
X73239238Y-81668952D01*
%TO.C,R6*%
X107783333Y-57094380D02*
X107450000Y-56618190D01*
X107211904Y-57094380D02*
X107211904Y-56094380D01*
X107592857Y-56094380D01*
X107688095Y-56142000D01*
X107735714Y-56189619D01*
X107783333Y-56284857D01*
X107783333Y-56427714D01*
X107735714Y-56522952D01*
X107688095Y-56570571D01*
X107592857Y-56618190D01*
X107211904Y-56618190D01*
X108640476Y-56094380D02*
X108450000Y-56094380D01*
X108354761Y-56142000D01*
X108307142Y-56189619D01*
X108211904Y-56332476D01*
X108164285Y-56522952D01*
X108164285Y-56903904D01*
X108211904Y-56999142D01*
X108259523Y-57046761D01*
X108354761Y-57094380D01*
X108545238Y-57094380D01*
X108640476Y-57046761D01*
X108688095Y-56999142D01*
X108735714Y-56903904D01*
X108735714Y-56665809D01*
X108688095Y-56570571D01*
X108640476Y-56522952D01*
X108545238Y-56475333D01*
X108354761Y-56475333D01*
X108259523Y-56522952D01*
X108211904Y-56570571D01*
X108164285Y-56665809D01*
%TO.C,R1*%
X77049333Y-76398380D02*
X76716000Y-75922190D01*
X76477904Y-76398380D02*
X76477904Y-75398380D01*
X76858857Y-75398380D01*
X76954095Y-75446000D01*
X77001714Y-75493619D01*
X77049333Y-75588857D01*
X77049333Y-75731714D01*
X77001714Y-75826952D01*
X76954095Y-75874571D01*
X76858857Y-75922190D01*
X76477904Y-75922190D01*
X78001714Y-76398380D02*
X77430285Y-76398380D01*
X77716000Y-76398380D02*
X77716000Y-75398380D01*
X77620761Y-75541238D01*
X77525523Y-75636476D01*
X77430285Y-75684095D01*
%TO.C,R12*%
X83685142Y-82240380D02*
X83351809Y-81764190D01*
X83113714Y-82240380D02*
X83113714Y-81240380D01*
X83494666Y-81240380D01*
X83589904Y-81288000D01*
X83637523Y-81335619D01*
X83685142Y-81430857D01*
X83685142Y-81573714D01*
X83637523Y-81668952D01*
X83589904Y-81716571D01*
X83494666Y-81764190D01*
X83113714Y-81764190D01*
X84637523Y-82240380D02*
X84066095Y-82240380D01*
X84351809Y-82240380D02*
X84351809Y-81240380D01*
X84256571Y-81383238D01*
X84161333Y-81478476D01*
X84066095Y-81526095D01*
X85018476Y-81335619D02*
X85066095Y-81288000D01*
X85161333Y-81240380D01*
X85399428Y-81240380D01*
X85494666Y-81288000D01*
X85542285Y-81335619D01*
X85589904Y-81430857D01*
X85589904Y-81526095D01*
X85542285Y-81668952D01*
X84970857Y-82240380D01*
X85589904Y-82240380D01*
D11*
%TO.C,C3*%
X98271000Y-85844748D02*
X98271000Y-86367252D01*
X96801000Y-85844748D02*
X96801000Y-86367252D01*
%TO.C,R8*%
X122068000Y-60645064D02*
X122068000Y-59190936D01*
X120248000Y-60645064D02*
X120248000Y-59190936D01*
%TO.C,R13*%
X80237000Y-87603064D02*
X80237000Y-87148936D01*
X78767000Y-87603064D02*
X78767000Y-87148936D01*
%TO.C,R7*%
X112120000Y-60645064D02*
X112120000Y-59190936D01*
X113940000Y-60645064D02*
X113940000Y-59190936D01*
%TO.C,R14*%
X80237000Y-82852436D02*
X80237000Y-83306564D01*
X78767000Y-82852436D02*
X78767000Y-83306564D01*
%TO.C,J1*%
X69644500Y-86098000D02*
X69644500Y-85098000D01*
X69644500Y-85098000D02*
X68644500Y-85598000D01*
X68254500Y-59278000D02*
X67884500Y-59278000D01*
X60104500Y-96678000D02*
X59234500Y-96678000D01*
X68254500Y-80028000D02*
X66944500Y-80028000D01*
X68644500Y-85598000D02*
X69644500Y-86098000D01*
X66944500Y-89518000D02*
X60544500Y-89518000D01*
X68254500Y-96678000D02*
X68254500Y-59278000D01*
X66944500Y-66438000D02*
X66944500Y-75928000D01*
X67884500Y-96678000D02*
X68254500Y-96678000D01*
X66944500Y-75928000D02*
X66944500Y-75928000D01*
X66944500Y-80028000D02*
X66944500Y-89518000D01*
X60544500Y-89518000D02*
X60544500Y-66438000D01*
X59234500Y-96678000D02*
X59234500Y-59278000D01*
X66944500Y-75928000D02*
X68254500Y-75928000D01*
X59234500Y-59278000D02*
X60104500Y-59278000D01*
X60544500Y-66438000D02*
X66944500Y-66438000D01*
%TO.C,C6*%
X78322000Y-63449252D02*
X78322000Y-62026748D01*
X75602000Y-63449252D02*
X75602000Y-62026748D01*
%TO.C,C7*%
X80237000Y-79001252D02*
X80237000Y-78478748D01*
X78767000Y-79001252D02*
X78767000Y-78478748D01*
%TO.C,D7*%
X78176000Y-89236000D02*
X78176000Y-86376000D01*
X76256000Y-89236000D02*
X78176000Y-89236000D01*
X76256000Y-86376000D02*
X76256000Y-89236000D01*
%TO.C,R5*%
X115168000Y-60645064D02*
X115168000Y-59190936D01*
X116988000Y-60645064D02*
X116988000Y-59190936D01*
%TO.C,D6*%
X116968000Y-76880000D02*
X116968000Y-83780000D01*
X120268000Y-76880000D02*
X120268000Y-83780000D01*
X120268000Y-76880000D02*
X116968000Y-76880000D01*
%TO.C,D3*%
X101330000Y-83856000D02*
X101330000Y-87756000D01*
X101330000Y-83856000D02*
X99330000Y-83856000D01*
X99330000Y-83856000D02*
X99330000Y-87756000D01*
%TO.C,R2*%
X82523000Y-87148936D02*
X82523000Y-87603064D01*
X81053000Y-87148936D02*
X81053000Y-87603064D01*
%TO.C,C1*%
X81053000Y-79001252D02*
X81053000Y-78478748D01*
X82523000Y-79001252D02*
X82523000Y-78478748D01*
%TO.C,C4*%
X74195000Y-87637252D02*
X74195000Y-87114748D01*
X75665000Y-87637252D02*
X75665000Y-87114748D01*
%TO.C,R10*%
X79021000Y-71400936D02*
X79021000Y-71855064D01*
X80491000Y-71400936D02*
X80491000Y-71855064D01*
%TO.C,C5*%
X75665000Y-82818248D02*
X75665000Y-83340752D01*
X74195000Y-82818248D02*
X74195000Y-83340752D01*
%TO.C,R4*%
X111400000Y-60645064D02*
X111400000Y-59190936D01*
X109580000Y-60645064D02*
X109580000Y-59190936D01*
%TO.C,U1*%
X101332500Y-67204000D02*
X79292500Y-67204000D01*
X101332500Y-57764000D02*
X101332500Y-67204000D01*
X79292500Y-67204000D02*
X79292500Y-57764000D01*
X78912500Y-60084000D02*
X78912500Y-62084000D01*
X79292500Y-57764000D02*
X101332500Y-57764000D01*
%TO.C,D1*%
X85548000Y-79428000D02*
X85548000Y-79173000D01*
X93268000Y-68908000D02*
X93268000Y-69163000D01*
X85548000Y-69163000D02*
X83733000Y-69163000D01*
X93268000Y-79428000D02*
X93268000Y-79173000D01*
X89408000Y-79428000D02*
X93268000Y-79428000D01*
X89408000Y-79428000D02*
X85548000Y-79428000D01*
X85548000Y-68908000D02*
X85548000Y-69163000D01*
X89408000Y-68908000D02*
X93268000Y-68908000D01*
X89408000Y-68908000D02*
X85548000Y-68908000D01*
%TO.C,D4*%
X109510000Y-83328000D02*
X109510000Y-85328000D01*
X109510000Y-85328000D02*
X113410000Y-85328000D01*
X109510000Y-83328000D02*
X113410000Y-83328000D01*
%TO.C,R9*%
X117708000Y-60645064D02*
X117708000Y-59190936D01*
X119528000Y-60645064D02*
X119528000Y-59190936D01*
%TO.C,R3*%
X104428936Y-83418000D02*
X105883064Y-83418000D01*
X104428936Y-85238000D02*
X105883064Y-85238000D01*
%TO.C,R15*%
X95223000Y-85878936D02*
X95223000Y-86333064D01*
X93753000Y-85878936D02*
X93753000Y-86333064D01*
%TO.C,D8*%
X78176000Y-84079500D02*
X78176000Y-81219500D01*
X76256000Y-81219500D02*
X76256000Y-84079500D01*
X78176000Y-81219500D02*
X76256000Y-81219500D01*
%TO.C,R6*%
X108860000Y-60645064D02*
X108860000Y-59190936D01*
X107040000Y-60645064D02*
X107040000Y-59190936D01*
%TO.C,R1*%
X77951000Y-78967064D02*
X77951000Y-78512936D01*
X76481000Y-78967064D02*
X76481000Y-78512936D01*
%TO.C,R12*%
X82523000Y-83306564D02*
X82523000Y-82852436D01*
X81053000Y-83306564D02*
X81053000Y-82852436D01*
%TD*%
M02*
